<?xml version="1.0" standalone="no"?>
<!DOCTYPE svg PUBLIC "-//W3C//DTD SVG 1.1//EN" "http://www.w3.org/Graphics/SVG/1.1/DTD/svg11.dtd" >
<!--
2013-9-30: Created.
-->
<svg>
<metadata>
Created by iconfont
</metadata>
<defs>

<font id="iconfont" horiz-adv-x="1024" >
  <font-face
    font-family="iconfont"
    font-weight="500"
    font-stretch="normal"
    units-per-em="1024"
    ascent="896"
    descent="-128"
  />
    <missing-glyph />
    
    <glyph glyph-name="arrowLeft" unicode="&#58926;" d="M776.66304 764.880213L396.35968 384.57344l385.314133-385.314133h-0.07168c28.327253-28.347733 28.310187-74.287787-0.04096-102.61504-28.34432-28.32384-74.284373-28.306773-102.611626 0.037546L243.38432 332.25728a72.2944 72.2944 0 0 0-22.2208 52.210347v0.324266a72.372907 72.372907 0 0 0 22.2208 52.24448L678.956373 872.605013l0.180907-0.180906c28.94848 27.726507 74.888533 26.7264 102.61504-2.215254 27.723093-28.94848 26.729813-74.888533-2.215253-102.61504-0.938667-0.90112-1.908053-1.778347-2.894507-2.624853l0.02048-0.088747z"  horiz-adv-x="1024" />

    
    <glyph glyph-name="arrowRight" unicode="&#58927;" d="M246.62016 3.181227l380.747093 380.75392L241.585493 769.713493h0.07168c-27.7504 28.95872-26.76736 74.932907 2.2016 102.68672 28.08832 26.914133 72.400213 26.914133 100.48512 0l436.09088-435.99872a72.3968 72.3968 0 0 0 22.254934-52.271786v-0.324267a72.430933 72.430933 0 0 0-22.254934-52.30592l-436.0192-436.087467-0.18432 0.180907c-28.9792-27.753813-74.980693-26.760533-102.73792 2.218667-27.753813 28.986027-26.760533 74.980693 2.22208 102.741333 0.945493 0.90112 1.91488 1.78176 2.904747 2.628267"  horiz-adv-x="1024" />

    
    <glyph glyph-name="fenlei" unicode="&#59021;" d="M592.659602 432.250321h415.180425a16.103071 16.103071 0 0 1 16.01772 18.094618A516.350959 516.350959 0 0 1 578.491175 895.853764 16.074621 16.074621 0 0 1 560.48191 879.836044v-415.180425A32.263044 32.263044 0 0 1 592.659602 432.250321zM463.749679 464.655619V879.836044a16.074621 16.074621 0 0 1-18.236871 16.01772A516.350959 516.350959 0 0 1 0.146236 450.487192 16.074621 16.074621 0 0 1 16.163956 432.250321h415.180425A32.263044 32.263044 0 0 1 463.749679 464.655619zM431.344381 335.51809H16.163956a16.074621 16.074621 0 0 1-16.01772-18.094617 516.350959 516.350959 0 0 1 445.366572-445.28122 16.103071 16.103071 0 0 1 18.094617 16.01772V303.340398A32.263044 32.263044 0 0 1 431.344381 335.51809zM560.48191 303.340398v-415.180425a16.103071 16.103071 0 0 1 18.094617-16.01772 516.350959 516.350959 0 0 1 445.28122 445.366572 16.103071 16.103071 0 0 1-16.01772 18.094617H592.659602A32.234593 32.234593 0 0 1 560.48191 303.340398z"  horiz-adv-x="1024" />

    
    <glyph glyph-name="quanefukuan" unicode="&#59043;" d="M511.99326 896C229.226974 896 0 666.773026 0 384.00674s229.226974-512.00674 511.99326-512.00674 512.00674 229.240453 512.00674 512.00674S794.759547 896 511.99326 896z m200.300649-293.91357l-115.0583-177.170372h63.352157A36.393792 36.393792 0 0 0 696.873725 388.61662a36.393792 36.393792 0 0 0-36.285959-36.299438h-105.555477v-29.84291h105.609394A36.393792 36.393792 0 0 0 696.873725 286.174834a36.393792 36.393792 0 0 0-36.285959-36.299437h-105.555477v-108.898314a38.321315 38.321315 0 0 0-38.213481-38.200003h-7.642697a38.307836 38.307836 0 0 0-38.200002 38.200003v108.898314h-104.544538a36.393792 36.393792 0 0 0-36.299438 36.299437 36.393792 36.393792 0 0 0 36.299438 36.299438h104.544538v29.84291h-104.544538a36.393792 36.393792 0 0 0-36.299438 36.299438 36.393792 36.393792 0 0 0 36.299438 36.299438h60.319341l-115.058301 177.170372a38.307836 38.307836 0 0 0 11.241638 52.851874l6.402612 4.165067a38.321315 38.321315 0 0 0 52.851874-11.228159l129.804525-199.882794 129.804526 199.882794a38.321315 38.321315 0 0 0 52.851874 11.228159l6.416091-4.165067a38.321315 38.321315 0 0 0 11.228158-52.851874z"  horiz-adv-x="1024" />

    
    <glyph glyph-name="lingshou" unicode="&#59044;" d="M328.794287 400.814445a39.539038 39.539038 0 0 1-19.833915-5.108736 28.74916 28.74916 0 0 1-12.879166-15.626721h62.20637Q355.239506 400.814445 328.794287 400.814445zM945.692006 377.91815l30.652414 81.568049c34.20134 91.427765 39.052492 81.568048-35.618048 128.290799L866.585309 633.955961l-23.182498 84.086641c-26.044535 94.032219-16.227749 88.937793-104.392792 82.655623l-87.220571-6.081828-68.102165 54.378699c-76.21604 60.875522-65.38323 62.449643-132.955919 5.724073l-67.057522-56.382125-86.862817 3.906681c-97.523904 4.378916-89.825025 12.135036-111.075647-73.611587l-21.121832-84.730599-72.609873-48.053597C10.521485 541.998719 12.267328 552.888769 45.495575 470.934346l32.784631-80.952711-30.595173-81.410636c-34.344441-91.485006-39.295765-81.568048 35.689599-128.162007l74.012271-46.407927 23.3256-84.01509c25.972984-94.089459 16.199128-89.109515 104.378482-82.841655l87.106089 6.153379 68.044925-54.378699c76.27328-60.832592 65.440471-62.363782 133.084711-5.45218l66.799938 56.095921L727.347219-34.215147c97.395112-4.378916 89.46727-12.077795 110.889616 73.597276l20.935799 84.744909 72.795906 47.924806c81.568048 53.978014 79.636174 42.930552 46.508097 124.970837zM98.128432 431.051863S58.059917 525.313045 66.746198 537.677044s119.876411 80.13703 119.876411 80.13703-71.121614-75.328808-78.219465-113.737342S98.128432 431.051863 98.128432 431.051863z m130.623359-38.294052l-4.808222 1.202056a66.198911 66.198911 0 0 1-17.730318 2.103597 50.429088 50.429088 0 0 1-18.030832-3.305653q-14.725179-6.611305-21.336484-19.533401v-87.449534H108.517625V436.332321h48.98376l2.404111-19.232887A77.274993 77.274993 0 0 0 183.202475 433.727868a63.05067 63.05067 0 0 0 26.588322 5.867175q14.124152 0 22.53854-3.005138l5.108735-1.803084z m181.209859-28.248303a18.488758 18.488758 0 0 0-18.932374-18.932373h-94.690487q8.714902-24.327313 44.175538-24.327313a86.533682 86.533682 0 0 1 21.636998 2.704625 119.647448 119.647448 0 0 1 24.041109 9.602133l3.906681 2.103597L405.797386 301.401597l-5.409249-2.704625a115.726458 115.726458 0 0 0-31.396544-12.177966 152.804144 152.804144 0 0 0-35.01702-4.049783 129.020618 129.020618 0 0 0-38.90939 5.552352 88.079182 88.079182 0 0 0-30.208798 16.084647 71.55092 71.55092 0 0 0-19.833915 25.085752 73.067799 73.067799 0 0 0-6.911819 31.711368 71.207475 71.207475 0 0 0 7.81336 33.357038 75.529151 75.529151 0 0 0 21.035971 25.243165 94.289802 94.289802 0 0 0 28.849331 15.025693 106.59656 106.59656 0 0 0 32.71308 5.108736 108.571366 108.571366 0 0 0 33.814965-4.965634 75.085535 75.085535 0 0 0 25.987294-14.310184A63.980832 63.980832 0 0 0 404.366368 397.265519a77.79016 77.79016 0 0 0 5.552351-29.750872z m139.738946-76.631035a164.567115 164.567115 0 0 0-39.66783-5.40925q-36.662691 0-52.94768 18.932374-12.321068 14.124152-12.321069 38.766288v56.79712H418.676552v39.066802h29.149845v37.564233H503.106637v-37.206478h45.363283v-39.367316H503.106637v-56.79712q0-9.616444 4.65081-13.98105t14.882591-4.293055a57.870384 57.870384 0 0 1 9.31593 0.901542 60.589319 60.589319 0 0 1 9.015416 2.103597l4.808222 1.431018 9.616443-37.206478z m174.899068 18.603239a21.03597 21.03597 0 0 0-20.735456-20.735456h-27.97641l-2.704625 12.621582q-26.144706-15.927235-52.94768-15.927235-25.844192 0-42.930552 13.22261a39.939723 39.939723 0 0 0-16.528263 33.357039q0 25.543678 24.642137 39.66783 25.243164 15.025693 80.237201 16.828776-3.606166 14.424665-25.243164 14.424665-10.818499 0-28.548817-4.808221a205.780445 205.780445 0 0 1-27.046248-9.616444l-3.90668-1.803083L564.640428 417.986665l5.724074 2.704625q39.66783 18.932373 78.434118 18.932374 37.206478 0 56.496606-16.828777t19.232887-49.885301z m93.459811-20.735456h-58.027795v138.236376h57.999175z m-4.207194 161.705078q-9.616444-8.714902-24.327312-8.714902t-24.327313 8.714902a28.620368 28.620368 0 0 0-9.616444 22.238026 29.106914 29.106914 0 0 0 9.31593 22.238026q9.31593 8.714902 24.642137 8.714902 14.725179 0 24.327313-8.714902a30.523622 30.523622 0 0 0 0-44.476052z m115.697838-161.705078a93.416881 93.416881 0 0 0-26.44522-3.305653q-50.214435 0-50.185815 48.082218V495.834066H910.946879v-167.085708q0-6.010277 4.507708-6.010277h2.404111a11.347976 11.347976 0 0 1 3.606167 0.601028l4.808221 0.601028 7.813361-36.662692zM617.287595 332.354525a9.673684 9.673684 0 0 1 5.552351-9.015416 27.189349 27.189349 0 0 1 13.079508-3.005139 41.714186 41.714186 0 0 1 15.741203 2.862037 70.363174 70.363174 0 0 1 14.582077 8.256976v21.03597q-26.144706-0.300514-37.564233-6.911818-11.390906-5.709763-11.390906-13.22261z"  horiz-adv-x="1024" />

    
    <glyph glyph-name="shoucang1" unicode="&#58931;" d="M793.545011-127.800039c-9.098223 0-18.296426 2.299551-26.794767 6.898653L511.90002 19.571178l-254.850225-140.472564c-18.696348-10.297989-41.191955-9.098223-58.688537 3.299355-18.196446 12.7975-27.294669 34.693224-23.595392 56.98887l48.990432 299.341534L16.596758 450.487014C1.199766 466.183948-3.899238 488.979496 3.099395 510.075376c6.798672 20.495997 24.095294 35.193126 44.991212 38.392501L333.434876 591.859402 461.20992 863.406366C470.708065 883.502441 490.104277 896 511.90002 896c21.795743 0 41.291935-12.497559 50.79008-32.593634L690.565124 591.859402 975.809412 548.367897c20.895919-3.199375 38.192541-17.896505 44.991213-38.392502 6.998633-20.995899 1.899629-43.791447-13.497364-59.488381L800.043741 238.728373l48.990432-299.341534c3.699277-22.295645-5.398946-44.191369-23.595392-56.98887-9.598125-6.798672-20.695958-10.198008-31.89377-10.198008zM511.90002 84.558485L794.244874-71.011131l-54.98926 329.035736 227.355595 232.354618L651.872681 540.269479l-140.672525 298.941613c-0.09998 0.299941-0.199961 0.399922-0.199961 0.399921L371.927358 540.169498l-315.338411-47.990627 227.955478-234.154266L230.954892-69.811365l280.945128 154.36985z"  horiz-adv-x="1024" />

    
    <glyph glyph-name="saoma" unicode="&#58932;" d="M124 510.9h-64V696.2c0 74.2 59.4 134.6 132.4 134.6h187.6v-64H192.3c-37.7 0-68.4-31.7-68.4-70.6v-185.3zM955.9 510.9h-64V696.2c0 38.9-30.7 70.6-68.4 70.6H635.9v64h187.6c73 0 132.4-60.4 132.4-134.6v-185.3zM380-65.2H192.3c-73 0-132.4 60.4-132.4 134.6V254.6h64v-185.3c0-38.9 30.7-70.6 68.4-70.6h187.6v-63.9zM823.5-65.2H635.9v64h187.6c37.7 0 68.4 31.7 68.4 70.6V254.6h64v-185.3c0-74.1-59.4-134.5-132.4-134.5zM992 349.6h-960c-17.7 0-32 14.3-32 32s14.3 32 32 32h960c17.7 0 32-14.3 32-32s-14.3-32-32-32z"  horiz-adv-x="1024" />

    
    <glyph glyph-name="shouji" unicode="&#58933;" d="M738.8 870.3c53.6 0 97.5-41.1 97.5-91.4v-792.2c0-50.3-43.9-91.4-97.5-91.4h-455c-53.6 0-97.5 41.1-97.5 91.4V778.9c0 50.3 43.9 91.4 97.5 91.4h455zM419.4 829.7c-9.1 0-16.5-9.1-16.5-20.3s7.4-20.3 16.5-20.3h183.8c9.1 0 16.5 9.1 16.5 20.3s-7.4 20.3-16.5 20.3H419.4z m91.9-893.8c35.9 0 65 27.3 65 60.9 0 33.7-29.1 60.9-65 60.9s-65-27.3-65-60.9c0-33.6 29.1-60.9 65-60.9zM270.3 139h487.5V748.4H270.3V139z m0 0"  horiz-adv-x="1024" />

    
    <glyph glyph-name="shoucangjiaobiao" unicode="&#58934;" d="M872 839.8H0l1024-912V687.7c0 84-68 152.1-152 152.1z m-3.6-474.6l-115.4 60.7-115.4-60.7 22 128.5-93.4 91 129 18.7 57.7 116.9 57.7-116.9 129-18.7-93.4-91 22.2-128.5z"  horiz-adv-x="1024" />

    
    <glyph glyph-name="redu" unicode="&#58935;" d="M334.1-10.1c-62.6 124.4-29.6 196 19.8 261.3 31.5 44.4 53.8 94 65.9 146.2 12 52.2 42.8-49.7 26.4-130.7 72.5 77.8 85.7 202.2 75.8 248.9C686.9 406.7 759.4 167.2 663.8-7 1171.4 266.8 789 674.3 723 717.9c23.1-46.6 26.4-124.4-19.7-161.7C627.5 829.9 439.6 882.8 439.6 882.8c23.1-140-79.1-292.4-178-407.7-3.3 56-6.6 93.3-39.4 149.3C215.4 521.9 132.8 441 110 338.3c-29.7-139.9 23-239.5 224.1-348.4z m0 0M977.3-117.2H48.7c-19.7 0-35.7 16-35.7 35.7 0 19.7 16 35.7 35.7 35.7h928.6c19.7 0 35.7-16 35.7-35.7 0-19.7-16-35.7-35.7-35.7z"  horiz-adv-x="1024" />

    
    <glyph glyph-name="shuruxiugai" unicode="&#58936;" d="M914.3-128H109.7C49.2-128 0-78.8 0-18.3V786.3C0 846.8 49.2 896 109.7 896h422.9v-73.1H109.7c-20.2 0-36.6-16.4-36.6-36.6v-804.6c0-20.2 16.4-36.6 36.6-36.6h804.6c20.2 0 36.6 16.4 36.6 36.6V325.3h73.1v-343.6c0-60.5-49.2-109.7-109.7-109.7zM413.846 391.606L827.57 805.33l103.449-103.449-413.724-413.724zM859.45 837.226l51.688 51.689 103.449-103.449-51.69-51.689zM478.7 252.9l-130-25.1 26.5 128.6z"  horiz-adv-x="1024" />

    
    <glyph glyph-name="sousuo" unicode="&#58937;" d="M1013.9-79.4L747.3 187.2c66.3 75.3 106.9 173.7 106.9 281.7C854.2 704.4 662.6 896 427.1 896S0 704.4 0 468.9s191.6-427.1 427.1-427.1c107.1 0 204.8 39.9 279.9 105.2l266.6-266.6c5.6-5.6 12.8-8.3 20.1-8.3s14.6 2.8 20.1 8.3c11.2 11.1 11.2 29.1 0.1 40.2z m-957 548.3C56.9 673 223 839.1 427.1 839.1S797.3 673 797.3 468.9 631.2 98.7 427.1 98.7 56.9 264.8 56.9 468.9z"  horiz-adv-x="1024" />

    
    <glyph glyph-name="tixing" unicode="&#58938;" d="M449.8 227.2a21.4 21.4 0 1 1 42.8 0 21.4 21.4 0 1 1-42.8 0ZM471.2 320.6c-11.8 0-21.4 9.6-21.4 21.4V556.2c0 11.8 9.6 21.4 21.4 21.4 11.8 0 21.4-9.6 21.4-21.4V342c0-11.8-9.5-21.4-21.4-21.4zM1018.2 439.4c-8.4 8.4-21.9 8.4-30.3 0l-46-46C941 652.3 730.2 862.6 471.2 862.6 211.6 862.6 0.4 651.3 0.4 391.6s211.2-471 470.8-471c138.4 0 269.2 60.6 358.9 166.2 7.6 9 6.6 22.5-2.4 30.2-9.1 7.7-22.5 6.5-30.2-2.4-81.5-96-200.5-151.1-326.3-151.1-236 0-428 192.1-428 428.2s192 428.2 428 428.2C706 819.8 897.1 629.7 899 395.2l-44.2 44.2c-8.4 8.4-21.9 8.4-30.3 0-8.4-8.4-8.4-21.9 0-30.3l96.8-96.8 96.8 96.8c8.5 8.4 8.5 21.9 0.1 30.3z"  horiz-adv-x="1024" />

    
    <glyph glyph-name="tuijianjiaobiao" unicode="&#58939;" d="M626.98 724.582l40.234-40.234-30.759-30.758-40.234 40.234zM550.371 647.987l30.547 30.546L621.152 638.3l-30.547-30.546zM541.808 558.9l-40.234 40.235 33.658 33.657 40.234-40.234zM872 896h-872l1024-912V743.9c0 84-68 152.1-152 152.1zM400.3 653.8l-20.8 20.8 12.4 19.2c6.3-7.8 12.1-14.4 17.4-19.7 6.2-6.2 12.1-6.5 17.6-0.9l54.9 54.9c-15.5 7.7-28 14.1-37.3 19.2l12.2 20.3c13.1-8.3 27-16 41.6-23.1l52 52-28.9 28.9 15.8 15.8 28.9-28.9 41.8 41.8 16.5-16.5-41.7-41.6 22.8-22.8-15.8-15.8-22.8 22.8-45.7-45.7c12.2-4.7 22.4-8.4 30.7-11.3l-16.5-16.5c-10.1 3.5-20.3 7.3-30.5 11.5l-65.5-65.5c-12.6-12.6-25.7-12.3-39.1 1.1z m199.4-152.7L584.1 485.5l-98.1 98.1-10.4-10.4-16 16L592 721.6c-12.8-2.9-26.9-5-42.3-6.6l11.8 22.6c42.3 5.9 82.3 19.7 119.8 41.6l12.7-19c-14.6-8.3-30.7-15.9-48.1-22.8l40.9-40.9c8.3 15.2 15.5 31.3 21.7 48.4l19.9-11.3c-8-18.5-16.2-35-24.6-49.5l-8.4 3.8 43.2-43.2-16-15.7-39.3 39.3-30.7-30.7 34.8-34.8-15.4-15.4-34.8 34.8-30.5-30.5 34.8-34.8-15.1-15.1-34.8 34.8-33.7-33.7 41.8-41.8z m282.7-136.3c-20.6 2.6-41 5.6-61 9l-9.5-9.5 49.7-49.7-15.4-15.4-49.7 49.7-30.5-30.5c-12.2-12.2-24.3-12.3-36.4-0.2l-26.4 26.4 11.1 20.6c10.8-12.4 18.7-20.9 23.5-25.8 5.6-5.6 11.1-5.7 16.5-0.2l26 26-62.4 62.4 15.4 15.4 62.4-62.4 14 14c10.2-2.4 25.8-5.7 46.6-9.9L781.8 459l14.9 14.9 97.4-97.4-11.7-11.7z m41.6 16.7L806.3 499.2c-18.4-5.1-37.7-8.4-58.1-9.7l-95.8-95.8-15.6 15.6 80 80c-16.9 0.9-35.3 3.2-55.4 7l2.9 23.3c44.4-9.2 85.5-9.7 123.2-1.6l-55.1 55.1L747.3 588l63.7-63.7c9.3 3.3 17.6 6.6 24.6 9.7l13.1-18.5c-2.4-1.2-5.7-2.7-9.9-4.5l-10.2-4.3 110.3-110.3-14.9-14.9z m47.7 45.4l-51.3 51.3-16.5-16.5-16.7 16.7 16.5 16.5-59.7 59.7-16.3-16.3-16.7 16.7 16.3 16.3-51.3 51.3 14.9 14.9 51.3-51.3 16.3 16.3 16.7-16.7-16.3-16.3 59.7-59.7 16.3 16.3 16.7-16.7-16.3-16.3 51.3-51.3-14.9-14.9z"  horiz-adv-x="1024" />

    
    <glyph glyph-name="weixin" unicode="&#58940;" d="M1010.8 268c0 141.2-141.3 256.2-299.9 256.2-168 0-300.3-115.1-300.3-256.2 0-141.4 132.3-256.2 300.3-256.2 35.2 0 70.7 8.9 106 17.7l96.8-53-26.6 88.2c70.9 53.2 123.7 123.7 123.7 203.3zM618 307.2c-22.1 0-40 17.9-40 40s17.9 40 40 40 40-17.9 40-40c0-22-17.9-40-40-40z m194.3 0.3c-22.1 0-40 17.9-40 40s17.9 40 40 40 40-17.9 40-40-17.9-40-40-40zM366.3 789.1c-194.1 0-353.1-132.3-353.1-300.3 0-97 52.9-176.6 141.3-238.4l-35.3-106.2 123.4 61.9c44.2-8.7 79.6-17.7 123.7-17.7 11.1 0 22.1 0.5 33 1.4-6.9 23.6-10.9 48.3-10.9 74 0 154.3 132.5 279.5 300.2 279.5 11.5 0 22.8-0.8 34-2.1C692 683.4 539.9 789.1 366.3 789.1zM247.7 546.8c-26.5 0-48 21.5-48 48s21.5 48 48 48 48-21.5 48-48-21.5-48-48-48z m246.6 0c-26.5 0-48 21.5-48 48s21.5 48 48 48 48-21.5 48-48-21.5-48-48-48z"  horiz-adv-x="1024" />

    
    <glyph glyph-name="wanfaxize" unicode="&#58941;" d="M512.3 859.4c262.2 0 475.4-213.3 475.4-475.4S774.4-91.4 512.3-91.4 36.9 121.8 36.9 384 250.1 859.4 512.3 859.4m0 36.6C229.5 896 0.3 666.8 0.3 384s229.2-512 512-512 512 229.2 512 512S795.1 896 512.3 896zM641.8 584.6c26.7-24.3 40.1-58 40.1-100.9 0-32-9.1-59.9-27.2-83.7-8.1-9.5-27.4-27.9-57.9-55.1-15.3-12.9-26.5-26-33.6-39.3-9.1-15.3-13.6-32.7-13.6-52.2v-16.5h-57.2v16.5c0 23.9 4.3 44.6 12.9 62.3 10 21.5 34.1 49.1 72.3 83 13.3 13.4 21.5 21.9 24.3 25.8 14.3 18.1 21.5 37 21.5 56.5 0 28.1-8.1 50.3-24.3 66.5-16.2 16.7-39.6 25-70.1 25-35.8 0-62.3-11.7-79.4-35.1-15.8-20-23.6-47.5-23.6-82.3h-56.5c0 50.6 14.1 90.6 42.2 120.2 28.6 31.5 68.7 47.2 120.2 47.2 46 0 82.7-12.6 109.9-37.9z m-89.5-410c8.1-8.1 12.2-18.1 12.2-30.1 0-12.4-4.3-22.7-12.9-30.8-9.1-8.1-19.3-12.2-30.8-12.2-11.4 0-21.7 4-30.8 12.2-8.1 8.1-12.2 18.4-12.2 30.8 0 12.4 4.1 22.4 12.2 30.1 8.1 8.1 18.3 12.2 30.8 12.2 12.9-0.1 23.4-4.1 31.5-12.2z"  horiz-adv-x="1024" />

    
    <glyph glyph-name="weixindenglu" unicode="&#58942;" d="M347.729118 542.9758c-16.487119 0-29.776737-13.389539-29.776737-29.776737S331.241998 483.322404 347.729118 483.322404s29.776737 13.389539 29.776737 29.776737-13.289617 29.876659-29.776737 29.876659zM577.749415 384.199844c-13.689305 0-24.880562-11.091335-24.880563-24.880562 0-13.689305 11.091335-24.880562 24.880563-24.880562 13.689305 0 24.880562 11.191257 24.880562 24.880562s-11.191257 24.880562-24.880562 24.880562zM500.909446 483.322404c16.487119 0 29.776737 13.389539 29.776737 29.776737s-13.389539 29.776737-29.776737 29.776737c-16.487119 0-29.776737-13.389539-29.776737-29.776737s13.289617-29.776737 29.776737-29.776737zM698.455113 384.399688c-13.689305 0-24.880562-11.091335-24.880562-24.880562 0-13.689305 11.091335-24.880562 24.880562-24.880562 13.689305 0 24.880562 11.091335 24.880562 24.880562-0.099922 13.689305-11.191257 24.880562-24.880562 24.880562zM511.601093 895.200625C229.12178 895.200625 0.000781 666.179547 0.000781 383.600312s229.021077-511.600312 511.600312-511.600312 511.600312 229.021077 511.600312 511.600312S794.180328 895.200625 511.601093 895.200625z m-90.229508-634.504294c-27.37861 0-49.361436 5.595628-76.839969 10.991413l-76.640125-38.469945 21.882904 65.948477c-54.957065 38.370023-87.73146 87.831382-87.73146 148.084309 0 104.318501 98.722873 186.554254 219.32865 186.554255 107.815769 0 202.34192-65.648712 221.327088-153.979703-6.994536 0.799375-13.989071 1.298985-21.083529 1.298985-104.118657 0-186.454333-77.739266-186.454332-173.564403 0-15.98751 2.498048-31.275566 6.794692-45.964091-6.794692-0.599532-13.689305-0.899297-20.583919-0.899297z m323.547228-76.839969l16.48712-54.757221-60.153006 32.874317c-21.882904-5.495706-43.965652-10.991413-65.848555-10.991413-104.318501 0-186.554254 71.344262-186.554255 159.175644 0 87.631538 82.135831 159.175644 186.554255 159.175644 98.523029 0 186.254489-71.444184 186.254488-159.175644 0.099922-49.461358-32.774395-93.227166-76.740047-126.301327z"  horiz-adv-x="1024" />

    
    <glyph glyph-name="wodedingdan" unicode="&#58943;" d="M526.445768 680.663087c35.289661 0 63.981255-28.691594 63.981255-63.981256s-28.691594-63.981255-63.981255-63.981255-63.981255 28.691594-63.981256 63.981255 28.691594 63.981255 63.981256 63.981256m0 63.981255c-70.679293 0-127.962511-57.283218-127.962511-127.962511s57.283218-127.962511 127.962511-127.96251 127.962511 57.283218 127.962511 127.96251-57.383189 127.962511-127.962511 127.962511zM526.445768 212.800156c35.289661 0 63.981255-28.691594 63.981255-63.981255s-28.691594-63.981255-63.981255-63.981256-63.981255 28.691594-63.981256 63.981256 28.691594 63.981255 63.981256 63.981255m0 63.981256c-70.679293 0-127.962511-57.283218-127.962511-127.962511s57.283218-127.962511 127.962511-127.962511 127.962511 57.283218 127.962511 127.962511-57.383189 127.962511-127.962511 127.962511zM760.377233 446.731622c35.289661 0 63.981255-28.691594 63.981256-63.981256s-28.691594-63.981255-63.981256-63.981255-63.981255 28.691594-63.981255 63.981255 28.691594 63.981255 63.981255 63.981256m0 63.981255c-70.679293 0-127.962511-57.283218-127.962511-127.962511s57.283218-127.962511 127.962511-127.962511 127.962511 57.283218 127.962511 127.962511-57.383189 127.962511-127.962511 127.962511zM292.514302 446.731622c35.289661 0 63.981255-28.691594 63.981256-63.981256s-28.691594-63.981255-63.981256-63.981255-63.981255 28.691594-63.981255 63.981255 28.691594 63.981255 63.981255 63.981256m0 63.981255c-70.679293 0-127.962511-57.283218-127.962511-127.962511s57.283218-127.962511 127.962511-127.962511 127.962511 57.283218 127.962511 127.962511-57.383189 127.962511-127.962511 127.962511zM863.347066 54.446549c-12.096456 12.896222-32.29054 13.596017-45.186761 1.599531-83.075661-77.477302-191.543884-120.064825-305.210583-120.064825-246.927658 0-447.868788 200.941131-447.868789 447.868789s200.941131 447.868788 447.868789 447.868788 447.868788-200.941131 447.868788-447.868788c0-71.978912-16.495167-140.658791-49.18559-204.240164-8.097628-15.695402-1.899444-34.989749 13.895929-43.087377 15.795372-8.097628 34.989749-1.899444 43.087377 13.895929 37.289075 72.678707 56.18354 151.255687 56.18354 233.431612 0 282.217319-229.632725 511.850044-511.850044 511.850044S1.099678 666.067363 1.099678 383.850044s229.632725-511.850044 511.850044-511.850044c119.564971 0 233.631553 41.687787 325.104754 117.165674L942.923753-115.703602c6.298155-6.298155 14.395782-9.397247 22.593381-9.397247s16.395197 3.099092 22.59338 9.397247c12.496339 12.496339 12.496339 32.790393 0 45.286732 0.099971 0-124.563507 124.663477-124.763448 124.863419z"  horiz-adv-x="1025" />

    
    <glyph glyph-name="xiangkan" unicode="&#58944;" d="M271.4 759.6c54.4 0 105.5-20.9 143.9-58.9l49.2-48.7 48-47.5 48 47.5 48.1 47.6c38.4 38 89.5 58.9 143.9 58.9 54.4 0 105.5-20.9 143.9-59 38.2-37.8 59.3-88 59.3-141.4s-21-103.6-59.3-141.4L512.6 36.9 127.5 417.8C89.3 455.6 68.3 505.9 68.3 559.3c0 53.4 21 103.6 59.3 141.5 38.3 37.9 89.4 58.8 143.8 58.8m0 68.3c-69.5 0-138.9-26.2-191.9-78.7-106-104.9-106-275 0-379.9l433.1-428.5 431.9 427.4c106 104.9 106 275 0 379.8-53 52.4-122.5 78.7-191.9 78.7-69.5 0-138.9-26.2-191.9-78.7l-48.1-47.6-49.3 48.8c-53 52.4-122.4 78.7-191.9 78.7z"  horiz-adv-x="1024" />

    
    <glyph glyph-name="xieyingping" unicode="&#58945;" d="M603.5 645l51.7-51.7-426.9-426.7-51.7 51.7L603.5 645m0 103.4L73.2 218.3l155.2-155.1 530.3 530.1-155.2 155.1zM858.5 693.1l-51.8-51.7L651.6 796.5l51.7 51.7zM183 17.9L0.9-6.9 27.8 173zM0.1-6.7h1024v-73.1H0.1z"  horiz-adv-x="1024" />

    
    <glyph glyph-name="xuanzhong1" unicode="&#58946;" d="M162.3-59.3c-24.1 0-43.7 19.6-43.7 43.7v6.2l-6.2 0.7H26.8c-11.4 0-20.6 9.2-20.6 20.6V630.2c0 26.2 21.3 47.5 47.5 47.5h916.5c26.2 0 47.5-21.3 47.5-47.5v-618.3c0-11.4-9.3-20.6-20.6-20.6h-91.8v-6.2c0-24.8-19.6-44.4-43.7-44.4H162.3zM970.2 671.4c22.7 0 41.2-18.5 41.2-41.2v-618.3c0-7.9-6.5-14.4-14.4-14.4h-98v-13.2c0-20.6-16.8-37.4-37.5-37.4H162.3c-20.7 0-37.5 16.8-37.5 37.4v13.2h-98c-7.9 0-14.4 6.4-14.4 14.4V630.2c0 22.7 18.5 41.2 41.2 41.2h916.6m0 12.5H53.7c-29.7 0-53.7-24-53.7-53.7v-618.3c0-14.8 12-26.8 26.9-26.8h85.5v-0.7c0-27.6 22.4-49.9 50-49.9H861.6c27.6 0 50 22.3 50 49.9v0.6h85.5c14.8 0 26.9 12 26.9 26.8V630.2c-0.1 29.6-24.1 53.7-53.8 53.7zM137.3 65.3c-10.3 0-18.7 8.4-18.7 18.7V783.6c0 24.1 19.6 43.7 43.7 43.7H861.6c24.1 0 43.7-19.6 43.7-43.7v-699.5c0-10.3-8.4-18.7-18.7-18.7H137.3zM861.6 821c20.7 0 37.5-16.8 37.5-37.5V84c0-6.9-5.6-12.5-12.5-12.5H137.3c-6.9 0-12.5 5.6-12.5 12.5V783.6c0 20.7 16.8 37.5 37.5 37.5H861.6m0 12.4H162.3c-27.6 0-50-22.4-50-50V84c0-13.8 11.2-25 25-25H886.6c13.8 0 25 11.2 25 25V783.6c-0.1 27.6-22.4 49.9-50 49.9z"  horiz-adv-x="1024" />

    
    <glyph glyph-name="yishoucang1" unicode="&#58947;" d="M794.444835-127.90002c-9.098223 0-18.296426 2.299551-26.694786 6.898653L512.899824 19.571178l-254.850224-140.472564c-18.696348-10.297989-41.191955-9.098223-58.688538 3.299355-18.196446 12.897481-27.194689 34.693224-23.595391 56.98887l48.990431 299.341534L17.496583 450.487014C2.19957 466.183948-2.999414 488.979496 3.999219 510.075376c6.798672 20.495997 24.095294 35.193126 44.991213 38.392501L334.3347 591.859402 462.109744 863.406366C471.607889 883.502441 491.004101 896 512.899824 896c21.795743 0 41.291935-12.497559 50.6901-32.593634L691.464948 591.859402 976.809217 548.367897c20.895919-3.199375 38.192541-17.896505 44.991213-38.392502 6.998633-20.995899 1.799649-43.791447-13.497364-59.488381L801.043546 238.728373l48.990432-299.341534c3.699277-22.295645-5.398946-44.191369-23.595392-56.98887-9.598125-6.798672-20.795938-10.297989-31.993751-10.297989z"  horiz-adv-x="1025" />

    
    <glyph glyph-name="yaoqinghaoyou" unicode="&#58948;" d="M444.2 376.1c-58.8 31.3-97.2 100.3-97.2 181.2 0 110.4 75 199.6 168 199.6s168-88.3 168-199.6c0-81-39.2-150-97.2-181.2C729.9 338.4 839 190.3 845.9 9l-661.8-0.8c8.6 179.3 117.7 330.2 260.1 367.9z m0 0M654.8 734.9c38.4-45.1 63.1-107.6 63.1-176.6 0-64.4-20.5-122.4-54.6-165.6C768.2 339.3 847.5 228 873.1 92.8h150c-6 161-103.2 292.6-231.1 325.7 52 27.6 86.1 89.2 86.1 161 0 98.4-66.5 177.6-149.2 177.6-27.3 0-52.9-9.2-75-23.9l0.9 1.7z m0 0M369.2 734c-22.2 15.6-47.7 23.9-75 23.9-82.7 0-149.2-80-149.2-177.6 0-71.8 35-133.4 86.1-161C103.1 386.3 5.9 253.8 0 93.7H150.1c25.6 135.2 104.9 245.6 209.8 299.9-33.3 44.2-54.6 102.1-54.6 165.6 0 69 23.9 131.6 63.1 176.6l0.8-1.8z m0 0"  horiz-adv-x="1025" />

    
    <glyph glyph-name="yishou" unicode="&#58949;" d="M162.3-59.1c-24.1 0-43.7 19.6-43.7 43.7v6.2l-6.2 0.7H26.9c-11.4 0-20.6 9.2-20.6 20.6V630.4c0 26.2 21.3 47.5 47.5 47.5h916.5c26.2 0 47.5-21.3 47.5-47.5v-618.3c0-11.4-9.3-20.6-20.6-20.6h-91.8v-6.2c0-24.8-19.6-44.4-43.7-44.4H162.3zM970.3 671.6c22.7 0 41.2-18.5 41.2-41.2v-618.3c0-7.9-6.5-14.4-14.4-14.4h-98v-13.2c0-20.6-16.8-37.4-37.5-37.4H162.3c-20.7 0-37.5 16.8-37.5 37.4v13.2H26.9c-7.9 0-14.4 6.4-14.4 14.4V630.4c0 22.7 18.5 41.2 41.2 41.2h916.6m0 12.5H53.7C24 684.1 0 660.1 0 630.4v-618.3c0-14.8 12-26.8 26.9-26.8h85.5v-0.7c0-27.6 22.4-49.9 50-49.9h699.3c27.6 0 50 22.3 50 49.9v0.7h85.5c14.8 0 26.9 12 26.9 26.8V630.4c-0.1 29.7-24.2 53.7-53.8 53.7zM137.4 65.6c-10.3 0-18.7 8.4-18.7 18.7V783.8c0 24.1 19.6 43.7 43.7 43.7h699.3c24.1 0 43.7-19.6 43.7-43.7v-699.5c0-10.3-8.4-18.7-18.7-18.7H137.4zM861.7 821.3c20.7 0 37.5-16.8 37.5-37.5v-699.5c0-6.9-5.6-12.5-12.5-12.5H137.4c-6.9 0-12.5 5.6-12.5 12.5V783.8c0 20.7 16.8 37.5 37.5 37.5h699.3m0 12.5H162.3c-27.6 0-50-22.4-50-50v-699.5c0-13.8 11.2-25 25-25h749.3c13.8 0 25 11.2 25 25V783.8c0 27.6-22.4 50-49.9 50z"  horiz-adv-x="1024" />

    
    <glyph glyph-name="yixiangkan" unicode="&#58950;" d="M944.4 748.1C838.4 853 666.6 853 560.6 748.2l-48.1-47.6-49.2 48.7c-106 104.9-277.8 104.9-383.8 0s-106-275 0-379.9L512.6-59.1l431.9 427.4c105.9 104.9 105.9 274.9-0.1 379.8z"  horiz-adv-x="1024" />

    
    <glyph glyph-name="you" unicode="&#58951;" d="M509.2 622.9m-107.8 0a107.8 107.8 0 1 1 215.6 0 107.8 107.8 0 1 1-215.6 0ZM366.9 197.6m-107.8 0a107.8 107.8 0 1 1 215.6 0 107.8 107.8 0 1 1-215.6 0ZM272.6 456.7m-107.8 0a107.8 107.8 0 1 1 215.6 0 107.8 107.8 0 1 1-215.6 0ZM720.3 455.2m-107.8 0a107.8 107.8 0 1 1 215.6 0 107.8 107.8 0 1 1-215.6 0ZM643.9 197.6m-107.8 0a107.8 107.8 0 1 1 215.6 0 107.8 107.8 0 1 1-215.6 0ZM497 383.5m-53.9 0a53.9 53.9 0 1 1 107.8 0 53.9 53.9 0 1 1-107.8 0ZM0 385.2C0 107.3 225.3-119 503.2-119c1 0 1.9-2 2.9-2h478.7c19.8 0 39.2 15.8 39.2 35.6v1.3c0 19.8-19.4 34.2-39.2 34.2H761.6c146.4 72 244.7 250.5 244.7 433.7C1006.3 661.7 781 889.5 503.1 889.5S0 663.1 0 385.2z m71.9-2C71.9 621 265.4 816.3 503.2 816.3s431.3-194.8 431.3-432.6c0-236.8-191.9-433.7-428.4-433.7h-3C265.4-50 71.9 145.3 71.9 383.2z"  horiz-adv-x="1024" />

    
    <glyph glyph-name="zuo" unicode="&#58952;" d="M515.2 622.9m-107.8 0a107.8 107.8 0 1 1 215.6 0 107.8 107.8 0 1 1-215.6 0ZM657.5 197.6m-107.8 0a107.8 107.8 0 1 1 215.6 0 107.8 107.8 0 1 1-215.6 0ZM751.8 456.7m-107.8 0a107.8 107.8 0 1 1 215.6 0 107.8 107.8 0 1 1-215.6 0ZM304.1 455.2m-107.8 0a107.8 107.8 0 1 1 215.6 0 107.8 107.8 0 1 1-215.6 0ZM380.4 197.6m-107.8 0a107.8 107.8 0 1 1 215.6 0 107.8 107.8 0 1 1-215.6 0ZM527.4 383.5m-53.9 0a53.9 53.9 0 1 1 107.8 0 53.9 53.9 0 1 1-107.8 0ZM521.2 889.5C243.3 889.5 18 661.6 18 383.7 18 200.5 116.3 22 262.8-50H39.6C19.8-50 0-64.4 0-84.2v-1.3c0-19.8 19.8-35.6 39.6-35.6h478.7c1 0 1.9 2 2.9 2 277.9 0 503.2 226.3 503.2 504.2S799.1 889.5 521.2 889.5z m0-939.5h-3C281.8-50 89.9 146.9 89.9 383.7c0 237.8 193.5 432.6 431.3 432.6S952.5 621 952.5 383.2 759-50 521.2-50z"  horiz-adv-x="1024" />

    
    <glyph glyph-name="cantuan" unicode="&#58953;" d="M1021.6 428.8l-68.5 273.7c-4.1 17.5-21.6 35-39.2 39.2l-75.8 19.1c13.9-7.2 25.8-21.1 29.4-35.6L936 451.5c8.8-35-5.2-84-29.9-109.3l-368-368c-13.9-13.9-30.9-22.7-48.4-26.3 38.1-34.5 97.4-33.5 134.5 3.6l368 368c24.8 25.3 38.2 74.3 29.4 109.3z m0 0M398 810.2c25.3 25.3 74.2 38.7 109.3 29.9L781 771.5c17.5-4.1 35-21.6 39.2-39.2l68.5-273.7c8.8-35-5.1-84-29.9-109.3l-368-368c-38.1-38.1-100-38.1-138.1-0.5L29.5 304.1c-38.1 38.1-38.1 100 0.5 138.1l368 368z m229.9-229.9c25.3-25.3 66.5-25.3 92.3 0 25.3 25.3 25.3 66.5 0 92.2-25.3 25.8-66.5 25.3-92.3 0-25.3-25.7-25.3-66.9 0-92.2z m0 0"  horiz-adv-x="1025" />

    
    <glyph glyph-name="dizhi" unicode="&#58954;" d="M1024-79.3H0L109.3 348h131.1v-56.9h-86.9L73.4-22.3h873.9L853 291.1h-76.1V348h118.4zM510.6 51.5l-20 19.8C479.8 82 226.3 335.5 226.3 547.8c0 156.8 127.8 284.4 284.9 284.4s284.9-127.6 284.9-284.4c0-212.4-254.6-465.8-265.5-476.5l-20-19.8z m0.6 723.7c-125.7 0-227.9-102-227.9-227.4 0-156.6 168.4-351.7 227.3-415.1C569.7 196.1 739 391.4 739 547.8c0.1 125.4-102.2 227.4-227.8 227.4zM515.5 400.7c-78.5 0-142.4 63.9-142.4 142.4S437 685.6 515.5 685.6s142.4-63.9 142.4-142.4S594 400.7 515.5 400.7z m0 227.9c-47.1 0-85.5-38.3-85.5-85.5s38.3-85.5 85.5-85.5S601 496 601 543.2s-38.4 85.4-85.5 85.4z"  horiz-adv-x="1024" />

    
    <glyph glyph-name="bukuan" unicode="&#58955;" d="M737.2 826.9H64.8c-12.3 0-22.3-10-22.3-22.3V-38c0-12.3 10.4-16.3 22.8-16.3l19.5-7.9H530c-101.2 58-169.4 168.8-169.4 293.7 0 185.8 150.8 336.4 336.9 336.4 21.2 0 41.9-2.1 62.1-5.8V778.7l-10.2 23.7c-0.1 12.2 0.1 24.5-12.2 24.5zM330.1 150.6c0-7.2-5.6-12.3-12.3-12.3H191.2c-7.3 0-12.3 5.6-12.3 12.3v25.6c-0.6 6.1 5 12.3 12.3 12.3h126.7c7.3 0 12.3-5.6 12.3-12.3v-25.6z m14.6 241.2c0-6.7-4.1-12.3-9-12.3H187.9c-5.3 0-9 5.6-9 12.3v25.6c0 7.2 4.1 12.3 9 12.3h147.9c5.3 0 9-5.6 9-12.3v-25.6z m289 232.9c0-7.2-5.6-12.3-12.3-12.3H190.6c-6.7 0-12.3 5-12.3 12.3v25.6c0 7.2 5.6 12.3 12.3 12.3h430.8c7.3 0 12.3-5.6 12.3-12.3v-25.6z m0 0M707.6 519.4c-160.5 0-290.9-129.8-290.9-290.3s130.4-290.8 290.9-290.8c160.5 0 290.9 130.4 290.9 290.8S868.1 519.4 707.6 519.4z m16.2-382.2l-0.6-0.6c-4.5-4.5-8.9-6.7-13.9-6.7s-9.5 2.2-13.9 6.7c-13.4 15.6-29 30.6-46.3 45.1v-109.2c0-5-1.7-16.2-18.9-17.8l0.6 1.1h-0.6c-16.7 1.7-18.9 12.3-18.9 17.8v122c-11.7-10-23.4-19.5-36.2-26.7-15.6-9.5-24-3.3-27.9 1.1l-0.6 0.6c-6.1 10-4.5 19.5 5 27.9 54.6 39 88.1 76.3 98.6 110.3v0.6c0.6 0.6 0.6 1.1 0.6 1.7h-79.1c-11.1 1.1-17.3 8.4-17.3 19.5 1.1 12.8 8.4 19.5 19.5 19.5h31.8c-5 10-8.9 17.8-11.7 22.3-5 10-2.8 18.9 5.6 25.6l1.1 0.6c10.6 4.5 20.1 2.8 27.3-5.6l0.6-0.6c6.7-10.6 12.3-21.7 15.6-33.4 1.1-2.8 1.7-6.1 1.7-8.9h20.6c12.3-1.1 20.6-5 24.5-12.3 5.6-8.9 5-20.6-1.7-37.3-12.8-28.4-26.2-50.7-40.1-66.9V223c1.1 0 2.8 0.6 4.5 0.6-2.2 8.4 0 15.6 7.8 20.6 6.1 4.5 13.9 11.1 22.9 20.1 7.2 6.1 10 8.4 11.1 9.5 7.8 7.8 16.7 7.8 25.6 0.6l1.1-1.1c6.1-8.4 5.6-17.8-1.7-26.2-13.4-15.6-26.8-26.8-39-33.4-1.7-1.1-3.9-1.7-5.6-2.2 12.8-10.6 28.4-26.2 46.3-46.2 9.4-12.5 6-22 1.6-28.1z m159.4 52.4l-1.1-1.1c-10.6-6.1-21.2-3.3-30.7 6.7-18.4 22.8-37.3 44-56.8 61.8v-182.2c-1.7-17.8-12.8-20.6-19.5-20.6h-0.6c-12.3 1.1-18.9 8.9-18.9 22.3v307c0 6.1 2.2 16.2 18.9 17.8h1.1c17.3-1.7 18.9-13.4 18.9-17.8v-74.7c34.6-27.3 64.6-57.4 89.2-88 11.2-15.6 4.5-26.2-0.5-31.2z m0 0M379.9-11H101.8c-13.9 0-25.6 11.7-25.6 25.6V767.3c0 13.9 11.7 25.6 25.6 25.6h581.3c13.9 0 25.6-11.7 25.6-25.6v-70.8c0-13.9 11.7-25.6 25.6-25.6 13.9 0 25.1 11.1 25.1 25.6v95.8c0 27.9-22.9 50.7-50.7 50.7H76.2c-27.9 0-50.7-22.8-50.7-50.7v-804c0-27.9 22.8-50.7 50.7-50.7h303.7c13.9 0 25.6 11.7 25.6 25.6 0.1 14.1-11.6 25.8-25.6 25.8z m0 0"  horiz-adv-x="1024" />

    
    <glyph glyph-name="dianhua" unicode="&#58956;" d="M843.42966 839.1c10.5 0 21-2.1 31.2-6.3 27.1-16.1 58.3-37.5 68.5-62.5C1022.52966 572.8 895.32966 322 734.02966 161.1c-54.9-54.7-113-100.4-173.4-136.2-78.1-47.8-157-78.3-234.5-90.6-23.7-3.6-47.4-5.5-70.4-5.5-18.5 0-33 1-45.6 3.2l-2 0.4-2 0.2c-25 2.6-51.3 5.9-74.8 15.6-19 7.7-31.1 22.1-46.2 41.5l-2.2 2.9-2.6 2.6-8 7.9c-11.7 15.3-17 34.3-15 54 2.1 20.3 11.9 38.5 27.8 51.2l102.2 82.5c14.6 11.5 32.5 17.9 50.5 17.9 16 0 30.7-4.9 42.6-14.1l4.7-3.8 5.9-2.7c1.1-0.6 5.4-3.6 15.7-15.9 5.1-6.6 10-11.5 14.3-15.7 37.8-36.3 75.8-53.9 116.1-53.9 2.8 0 5.5 0.1 8.3 0.3 83.6 3.2 155.4 72.9 221.8 144.3 4.9 4.9 9.7 10 14.5 15 4 4.2 7.8 8.3 11.9 12.3 49.3 50.2 96.4 113.6 73 202.6-11.3 43.7-42.4 78.3-69.7 108.9l-3.8 4.2c-8.9 9.8-17.3 19.1-24.7 28.4-13.1 16-19 35.9-17.2 57.4 1.7 20.1 11.2 37.6 27.5 50.9l117 95.2c13.6 11.1 30.1 17 47.7 17m0 56.9c-30.3 0-59.7-10.2-83.7-29.7l-117-95.2c-27.7-22.5-45.2-54.3-48.2-90.1-3.1-35.8 7.2-70.6 29.8-98.3 8.2-10.2 17.5-20.5 26.7-30.7 25.7-28.7 52.4-57.3 60.6-89.1 15.4-58.4-12.3-101.4-58.5-148.5-8.2-8.2-17.5-18.4-26.7-27.6-52.4-56.3-119.1-124.9-183.8-127-1.8-0.1-3.6-0.2-5.4-0.2-26.7 0-51.7 14.1-76.7 38.1-3.1 3.1-6.2 6.1-9.2 10.2-10.3 12.3-22.6 25.6-35.9 31.7-22.3 17.3-49.6 26-77.5 26-29.8 0-60.3-10-85.7-30.1L49.32966 152.6c-57.5-46.1-65.7-131.1-19.5-187.4L40.12966-45c17.5-22.5 37-46.1 69.8-59.4 29.8-12.3 60.6-16.4 90.3-19.5 17.5-3.1 35.9-4.1 55.4-4.1 25.7 0 52.4 2 79 6.1 84.2 13.3 170.4 46.1 255.6 98.3 65.7 38.9 127.3 88.1 183.8 144.4 174.5 174.1 311.1 448.5 221.7 670.7-17.5 43-60.6 71.7-95.5 92.2C881.82966 892 862.42966 896 843.42966 896z"  horiz-adv-x="1024" />

    
    <glyph glyph-name="guanyu" unicode="&#58957;" d="M513.199766 896c-282.744776 0-511.90002-229.155243-511.90002-511.90002s229.155243-511.90002 511.90002-511.900019 511.90002 229.155243 511.900019 511.900019-229.155243 511.90002-511.900019 511.90002z m0-959.812537c-246.951767 0-447.912517 200.96075-447.912517 447.912517s200.96075 447.912517 447.912517 447.912518 447.912517-200.96075 447.912517-447.912518-200.96075-447.912517-447.912517-447.912517zM512.299941 576.062488m-31.993751 0a31.993751 31.993751 0 1 1 63.987503 0 31.993751 31.993751 0 1 1-63.987503 0ZM512.699863 476.581918c-17.596563 0-31.993751-14.397188-31.993751-31.993752v-255.950009c0-17.596563 14.397188-31.993751 31.993751-31.993752s31.993751 14.397188 31.993752 31.993752v255.950009c0 17.596563-14.397188 31.993751-31.993752 31.993752z"  horiz-adv-x="1025" />

    
    <glyph glyph-name="dianyingquan" unicode="&#58958;" d="M515.349692 519.836735m-65.793574 0a65.793575 65.793575 0 1 1 131.587149 0 65.793575 65.793575 0 1 1-131.587149 0ZM428.458178 260.262084m-65.793575 0a65.793575 65.793575 0 1 1 131.58715 0 65.793575 65.793575 0 1 1-131.58715 0ZM370.863802 418.346646m-65.793574 0a65.793575 65.793575 0 1 1 131.587149 0 65.793575 65.793575 0 1 1-131.587149 0ZM644.237106 417.446734m-65.793575 0a65.793575 65.793575 0 1 1 131.58715 0 65.793575 65.793575 0 1 1-131.58715 0ZM597.641656 260.262084m-65.793575 0a65.793575 65.793575 0 1 1 131.58715 0 65.793575 65.793575 0 1 1-131.58715 0ZM507.950415 373.751001m-32.896787 0a32.896787 32.896787 0 1 1 65.793574 0 32.896787 32.896787 0 1 1-65.793574 0ZM204.580041 378.550532c-2.099795-171.383263 136.186701-311.769554 307.170003-311.769554 0.599941 0 1.199883-1.299873 1.799824-1.299873h283.972269c12.098818 0 21.897862 9.799043 21.897861 21.897862 0 12.098818-9.799043 21.897862-21.897861 21.897861h-127.987502c89.39127 43.895713 149.385412 152.78508 149.385412 264.574163 0 170.483351-138.886437 309.96973-309.769749 308.569866-166.983693-1.199883-302.570452-136.886632-304.570257-303.870325z m43.795723-4.799531c0 145.185822 118.088468 264.274192 263.27429 264.274192s263.27429-118.7884 263.274289-263.974221c0-144.58588-117.188556-264.574163-261.474465-264.574163h-1.799824c-145.185822-0.09999-263.27429 119.08837-263.27429 264.274192zM511.950024-127.90001c-282.272434 0-511.950005 229.677571-511.950004 511.950005s229.677571 511.950005 511.950004 511.950005 511.950005-229.677571 511.950005-511.950005-229.677571-511.950005-511.950005-511.950005z m0 989.70335C248.475754 861.80334 34.09669 647.424275 34.09669 383.950005s214.379065-477.853335 477.853334-477.853335S989.803359 120.475735 989.803359 383.950005 775.424295 861.80334 511.950024 861.80334z"  horiz-adv-x="1024" />

    
    <glyph glyph-name="guanyingqia" unicode="&#58959;" d="M924.3 655.9c-1.2 0.6-4.7 1.5-6 1.9L301.1 857.1c-37.3 11.7-77.7 8.1-112.5-10.1s-60.8-48.8-72.5-86.1L81.9 652.3c-0.8-2.3-0.2-0.4-0.2-0.4C31.4 627.3 1 575.3 1 515.1v-464.7C1-33.3 58.4-96 142.1-96h720.4c83.7 0 162.4 62.7 162.4 146.4V515.1c0.1 63.8-44.8 118.3-100.6 140.8zM217.5 790.3c19.7 10.3 42 14.4 62.8 7.8L679.1 671H153.4l23.4 72.8c6.6 21 21 36.2 40.7 46.5zM961 56c0-48.5-38.6-88-87.1-88H153.5C105-32 66 7.5 66 56V520.3c0 48.5 39 87.7 87.5 87.7H874c48.5 0 87.1-39.2 87.1-87.7V56zM732.7 408.2h-576c-17.6 0-32 14.4-32 32s14.4 32 32 32h576c17.6 0 32-14.4 32-32s-14.4-32-32-32zM406.7 287.1h-250c-17.6 0-32 14.4-32 32s14.4 32 32 32h250c17.6 0 32-14.4 32-32s-14.4-32-32-32zM535 27.7h-32c-17.6 0-32 14.4-32 32s14.4 32 32 32h32c17.6 0 32-14.4 32-32s-14.4-32-32-32zM692 27.7h-32c-17.6 0-32 14.4-32 32s14.4 32 32 32h32c17.6 0 32-14.4 32-32 0.1-17.6-14.3-32-32-32zM849.1 27.7h-32c-17.6 0-32 14.4-32 32s14.4 32 32 32h32c17.6 0 32-14.4 32-32s-14.4-32-32-32z"  horiz-adv-x="1024" />

    
    <glyph glyph-name="guanggao" unicode="&#58960;" d="M127.975005 91.757079c-0.09998 16.8967 1.499707 34.493263 5.498926 50.89006 4.899043 19.896114 12.897481 35.793009 23.995313 46.5909 7.898457 7.798477 16.496778 14.997071 25.595001 21.395822 40.692052 27.994532 64.987307 74.185511 64.887327 123.575864v158.968951c0 57.388791 18.296426 112.777973 52.489748 157.969147 39.692248 52.489748 86.883031 91.682093 140.672525 111.178285l19.296231 6.898653 1.599688 19.796133c0.399922 4.799063 1.499707 9.398164 3.299355 13.897286 0.299941 0.599883 0.799844 1.899629 1.899629 3.999219l2.399532 3.999219c1.799649 2.499512 3.699277 4.899043 5.798867 7.198594l1.799649 1.699668 3.299355 2.799453c3.099395 2.19957 3.099395 2.19957 3.799258 2.699473l1.99961 1.199766c1.499707 0.999805 2.799453 1.499707 2.799453 1.499707l3.199375 1.399726 2.299551 0.899825c2.19957 0.799844 2.299551 0.799844 3.599297 1.099785l2.599492 0.599883c0.999805 0.199961 0.999805 0.199961 2.699473 0.499902l2.599492 0.299941c1.499707 0.09998 3.099395 0.199961 4.599102 0.199961l4.499121-0.09998 2.599492-0.399922 2.699473-0.399922 2.599492-0.599883 2.299551-0.599883 2.299551-0.799843 2.599492-0.999805 2.899434-1.399727c2.19957-1.099785 4.19918-2.399531 6.198789-3.799258 2.299551-1.699668 2.299551-1.699668 3.699278-2.899433 1.699668-1.599688 2.599492-2.399531 4.699082-4.699083l2.699473-3.299355 2.399531-3.599297 1.99961-3.799258c0.599883-1.199766 1.199766-2.499512 1.699668-3.799258 1.099785-2.699473 1.899629-5.498926 2.299551-8.298379 0.299941-1.399727 0.399922-2.899434 0.599882-4.19918l1.499708-19.896114 19.296231-6.898653c53.889475-19.396212 100.980277-58.688537 140.672525-111.178285 34.093341-45.191174 52.489748-100.580355 52.489748-157.969147v-159.068932c0-49.190393 23.995313-95.381371 64.887326-123.575864 7.998438-5.498926 16.496778-12.497559 25.595001-21.395821 11.097832-10.897872 19.196251-26.594806 23.995314-46.5909 3.999219-16.396798 5.598906-33.89338 5.498926-50.890061H127.975005z m386.424526-155.969538c-57.788713-0.499902-108.778754 37.792619-124.275727 93.481742h248.551455c-15.596954-55.589143-66.586995-93.981644-124.275728-93.481742z m436.114822 221.256786c-7.398555 30.294083-20.595977 56.289006-40.991994 76.18512-10.49795 10.397969-21.795743 19.796134-33.89338 28.294474-23.795352 16.496778-37.99258 43.691467-37.892599 72.585823V493.178676c0.199961 70.286272-22.595587 138.672915-64.987308 194.861941C730.357352 744.129662 679.667252 788.221051 619.97891 813.816052c-0.999805 3.699277-1.999609 6.598711-3.099394 9.598125-3.499317 9.498145-8.39836 18.396407-14.597149 26.394845-4.099199 5.398946-8.598321 10.397969-13.497364 14.997071l-2.399531 2.29955c-2.599492 2.19957-2.599492 2.19957-5.498926 4.499122l-2.899434 2.09959c-2.399531 1.799649-2.399531 1.799649-5.398946 3.799258l-3.199375 1.899629-5.898848 3.299355-3.799258 1.799649c-3.199375 1.499707-3.199375 1.499707-5.898847 2.599492-2.599492 1.099785-2.599492 1.099785-4.399141 1.699668-3.199375 1.199766-3.199375 1.199766-5.698887 1.899629-3.199375 0.899824-3.199375 0.899824-5.198985 1.299746-2.899434 0.799844-2.899434 0.799844-5.198984 1.299746-4.19918 0.799844-4.19918 0.799844-6.898653 1.099785l-4.29916 0.599883c-7.498535 0.599883-14.997071 0.599883-22.495607-0.09998l-3.699277-0.399922-7.298575-1.199766-3.799258-0.799844-6.698691-1.699668-4.0992-1.299746-6.098808-2.19957c-2.699473-1.099785-2.699473-1.099785-4.299161-1.899629l-5.398945-2.599492-4.299161-2.299551-4.599101-2.699473-5.298965-3.599297-3.299356-2.599492c-2.899434-2.19957-2.899434-2.19957-5.099004-4.0992l-2.699473-2.599492-4.999023-4.699082c-7.198594-7.698496-13.397383-16.396798-18.296427-25.694982-1.899629-3.799258-3.099395-6.498731-4.29916-9.298184-1.599688-4.29916-2.599492-7.098614-3.399336-10.098027-59.988284-26.594806-110.678383-70.686194-153.170084-126.87522-42.29174-56.089045-65.087288-124.575669-64.987307-194.861941v-159.068932c0-29.194298-14.097247-56.388987-37.692639-72.585823-12.097637-8.49834-23.495411-17.896505-33.99336-28.194493-20.396016-19.896114-33.693419-45.991017-41.091974-76.285101-7.698496-33.093536-9.398164-67.286858-4.899044-100.880297l3.999219-26.794766h254.550283c15.396993-88.282757 94.281586-155.869557 189.862918-155.869557 95.681312 0 174.565905 67.586799 189.962898 155.869557h247.151728l3.999219 26.794766c0.299941 2.399531 0.699863 5.998828 1.099785 10.897872 2.299551 28.294474 1.199766 59.488381-6.198789 89.782464z m0 0M664.37024 632.151533c-25.495021 31.193907-47.690685 50.390158-62.487795 59.688342-14.89709 9.398164-34.693224 4.899043-43.991408-10.098028-9.398164-14.89709-4.899043-34.693224 10.098028-43.991408 9.098223-5.798867 25.994923-20.296036 46.990822-45.991017 15.796915-19.896114 26.494825-43.491506 30.993946-68.486624 3.199375-16.8967 19.196251-28.194493 36.192931-25.694981 16.99668 2.599492 28.894357 18.196446 26.994728 35.293107-6.098809 36.392892-21.595782 70.586214-44.791252 99.280609"  horiz-adv-x="1024" />

    
    <glyph glyph-name="kexuan" unicode="&#58961;" d="M162.3-59.1c-24.1 0-43.7 19.6-43.7 43.7v6.2l-6.2 0.7H26.9c-11.4 0-20.6 9.2-20.6 20.6V630.4c0 26.2 21.3 47.5 47.5 47.5h916.5c26.2 0 47.5-21.3 47.5-47.5v-618.3c0-11.4-9.3-20.6-20.6-20.6h-91.8v-6.2c0-24.8-19.6-44.4-43.7-44.4H162.3zM970.3 671.6c22.7 0 41.2-18.5 41.2-41.2v-618.3c0-7.9-6.5-14.4-14.4-14.4h-98v-13.2c0-20.6-16.8-37.4-37.5-37.4H162.3c-20.7 0-37.5 16.8-37.5 37.4v13.2H26.9c-7.9 0-14.4 6.4-14.4 14.4V630.4c0 22.7 18.5 41.2 41.2 41.2h916.6m0 12.5H53.7C24 684.1 0 660.1 0 630.4v-618.3c0-14.8 12-26.8 26.9-26.8h85.5v-0.7c0-27.6 22.4-49.9 50-49.9h699.3c27.6 0 50 22.3 50 49.9v0.7h85.5c14.8 0 26.9 12 26.9 26.8V630.4c-0.1 29.7-24.2 53.7-53.8 53.7zM137.4 65.6c-10.3 0-18.7 8.4-18.7 18.7V783.8c0 24.1 19.6 43.7 43.7 43.7h699.3c24.1 0 43.7-19.6 43.7-43.7v-699.5c0-10.3-8.4-18.7-18.7-18.7H137.4zM861.7 821.3c20.7 0 37.5-16.8 37.5-37.5v-699.5c0-6.9-5.6-12.5-12.5-12.5H137.4c-6.9 0-12.5 5.6-12.5 12.5V783.8c0 20.7 16.8 37.5 37.5 37.5h699.3m0 12.5H162.3c-27.6 0-50-22.4-50-50v-699.5c0-13.8 11.2-25 25-25h749.3c13.8 0 25 11.2 25 25V783.8c0 27.6-22.4 50-49.9 50z"  horiz-adv-x="1024" />

    
    <glyph glyph-name="julipaixu" unicode="&#58962;" d="M499.40123-14.011132l11.998829-10.598965 12.098818 10.498975c13.698662 11.998828 336.267161 296.571038 336.267161 562.645054C859.766038 740.015233 703.881262 895.80002 512.299971 895.80002S164.733913 740.115223 164.733913 548.633922c0-266.074016 321.068646-550.646226 334.667317-562.645054z m12.79875 873.314716c171.483254 0 310.869642-139.386388 310.869642-310.669662 0-221.578361-252.875305-469.554145-311.669563-524.148813C453.005761 79.079777 201.330339 326.855581 201.330339 548.633922c0 171.283273 139.486378 310.669661 310.869641 310.669662zM676.883898 537.934967c0 90.791134-73.792794 164.583927-164.583927 164.583928s-164.583927-73.792794-164.583928-164.583928 73.792794-164.583927 164.583928-164.583927 164.583927 73.792794 164.583927 164.583927z m-292.671419 0c0 70.593106 57.394395 127.987501 127.987501 127.987502s127.987501-57.394395 127.987502-127.987502-57.394395-127.987501-127.987502-127.987501-127.987501 57.394395-127.987501 127.987501zM693.082316 110.476711c-9.799043 2.099795-19.598086-4.19959-21.697881-14.098623-2.099795-9.899033 4.19959-19.598086 14.098623-21.697881 95.090714-20.298018 137.686554-52.094913 137.686554-74.692706 0-38.19627-118.288448-91.491065-310.869641-91.491065s-310.869642 53.294795-310.869642 91.491065c0 22.097842 43.895713 54.994629 140.08632 75.192657 9.899033 2.099795 16.198418 11.798848 14.198613 21.597891-2.099795 9.899033-11.898838 16.298408-21.597891 14.198613-107.489503-22.497803-169.183478-62.893858-169.183478-110.989161 0-83.191876 179.082511-127.987501 347.466068-127.987501s347.466068 44.895616 347.466068 127.987501c-0.09999 47.595352-60.894053 87.891417-166.783713 110.48921z"  horiz-adv-x="1024" />

    
    <glyph glyph-name="jiagepaixu" unicode="&#58963;" d="M512.749634 858.918106c262.072035 0 475.167984-213.1959 475.167984-475.167984S774.821669-91.417862 512.749634-91.417862 37.58165 121.678087 37.58165 383.750122 250.677599 858.918106 512.749634 858.918106m0 36.582138C230.087653 895.500244 0.999512 666.412103 0.999512 383.750122s229.088141-511.750122 511.750122-511.750122 511.750122 229.088141 511.750122 511.750122S795.411615 895.500244 512.749634 895.500244zM692.761737 615.037189c-8.495852 5.497316-19.790337 2.998536-25.287652-5.497316L523.944168 385.24939 374.916935 609.739776c-5.597267 8.3959-16.991703 10.794729-25.287652 5.09751-8.3959-5.597267-10.694778-16.891752-5.097511-25.287652l157.822938-237.783895H372.81796c-10.095071 0-18.291069-8.195998-18.291069-18.291068 0-10.095071 8.195998-18.291069 18.291069-18.291069h134.034553v-73.064324H372.81796c-10.095071 0-18.291069-8.195998-18.291069-18.291069s8.195998-18.291069 18.291069-18.291069h134.034553v-97.652318c0-10.095071 8.195998-18.291069 18.291069-18.291069 10.095071 0 18.291069 8.195998 18.291069 18.291069v97.652318h121.840508c10.095071 0 18.291069 8.195998 18.291068 18.291069s-8.195998 18.291069-18.291068 18.291069H543.434651v73.064324h121.840508c10.095071 0 18.291069 8.195998 18.291068 18.291069 0 10.095071-8.195998 18.291069-18.291068 18.291068H545.83348l152.425573 237.983797c5.497316 8.495852 3.098487 19.790337-5.497316 25.287653z"  horiz-adv-x="1025" />

    
    <glyph glyph-name="mianmizhifu" unicode="&#58964;" d="M895.7 581.6L743.5 865.8 566.2 784H131.7C64.6 784 6 727.5 0 661.7v-602.1C0-21.9 76-79 159.8-79h719.5c83.8 0 144.7 57.1 144.7 138.6V435.8c0 74.8-54.1 136.2-128.3 145.8zM825.2 593H314.3l404.2 194.1L825.2 593zM137 719h296L166.5 593H137c-35.3 0-64 27.7-64 63s28.7 63 64 63z m822-659.4c0-46.2-31.2-73.6-79.7-73.6H159.8c-48.5 0-93.8 27.4-93.8 73.6V547.1c25-16.7 34.3-19.1 71-19.1H879.3c48.5 0 79.7-46 79.7-92.2v-376.2zM474.9 74L295.2 254.7c-12.5 12.5-12.4 32.8 0.1 45.2 12.5 12.5 32.8 12.4 45.2-0.1l134.6-135.3 249 247.7c12.5 12.5 32.8 12.4 45.2-0.1 12.5-12.5 12.4-32.8-0.1-45.2L474.9 74z"  horiz-adv-x="1025" />

    
    <glyph glyph-name="piaoquan" unicode="&#58965;" d="M714.063207 694.635973c-14.88256 9.48888-34.659384 5.193913-44.148264-9.688646L517.293796 446.726492l-158.414358 238.72025c-9.788529 14.682794-29.565353 18.777995-44.248147 8.989466-14.682794-9.788529-18.777995-35.058915-8.989465-49.741709l166.205228-256H347.09325c-17.679282 0-31.962544-14.283262-31.962544-31.962544s14.283262-31.962544 31.962544-31.962544h139.83613v-63.925088h-139.83613c-17.679282 0-31.962544-14.283262-31.962544-31.962544s14.283262-31.962544 31.962544-31.962544h139.83613v-83.801795c0-17.679282 14.283262-31.962544 31.962544-31.962543s31.962544 14.283262 31.962543 31.962543v83.801795h126.052283c17.679282 0 31.962544 14.283262 31.962544 31.962544s-14.283262 31.962544-31.962544 31.962544H550.854467v63.925088h126.052283c17.679282 0 31.962544 14.283262 31.962544 31.962544s-14.283262 31.962544-31.962544 31.962544h-113.866563l160.811549 256.399531c9.48888 14.88256 5.09403 40.053063-9.788529 49.541943zM895.950059 830.876317c35.258681 0 63.925088-28.666407 63.925087-63.925088v-767.101053c0-35.258681-28.666407-63.925088-63.925087-63.925088H128.849005c-35.258681 0-63.925088 28.666407-63.925088 63.925088v767.101053c0 35.258681 28.666407 63.925088 63.925088 63.925088h767.101054m0 63.925088H128.849005C58.531409 894.801405 0.998829 837.268826 0.998829 766.951229v-767.101053c0-70.317597 57.532579-127.850176 127.850176-127.850176h767.101054c70.317597 0 127.850176 57.532579 127.850175 127.850176v767.101053c0 70.317597-57.532579 127.850176-127.850175 127.850176z"  horiz-adv-x="1025" />

    
    <glyph glyph-name="qiehuanzhanghao" unicode="&#58966;" d="M1010.1 550.7c3.4 8.2 3.4 17.3 0 25.5-1.7 4.1-4.1 7.8-7.2 10.8L767.2 822.7c-13 13-34.1 13-47.1 0s-13-33.5 0-46.5L898.9 598H46c-18.4 0-33.3-14.1-33.3-32.5S27.6 533 46 533h933.3c4.3 0 8.7-0.5 12.7 1.1 8.3 3.4 14.8 8.5 18.1 16.6zM979.4 243H46.1c-4.3 0-8.7-2.7-12.8-4.4-4-1.7-7.6-5-10.6-8-0.1-0.1-0.1-0.5-0.2-0.6 0 0-0.1-0.3-0.1-0.4-3-3-5.4-6.8-7.1-10.8-3.4-8.2-3.4-17.4 0-25.5 1.7-4 4.1-7.6 7.1-10.7 0.1-0.1 0.1-0.2 0.1-0.2l235.7-235.7c13-13 34.1-13 47.1 0s13 36.3 0 49.3L126.5 177h852.9c18.4 0 33.3 14.6 33.3 33s-14.9 33-33.3 33z"  horiz-adv-x="1024" />

    
    <glyph glyph-name="quyupaixu" unicode="&#58967;" d="M672.1 542.3c55.5 0 100.6 45.2 100.6 100.7s-45.2 100.7-100.6 100.7c-55.5 0-100.7-45.2-100.7-100.7s45.2-100.7 100.7-100.7z m0 161.9c33.8 0 61.3-27.5 61.3-61.3s-27.5-61.3-61.3-61.3-61.3 27.5-61.3 61.3 27.5 61.3 61.3 61.3zM858.1 724.6c-30 73.8-101.9 126-186.4 126-86.7 0-160-55.2-188.5-132.1l-146-36.6L1 762.1v-770l337.2-62.9 336 90 350.8-95.6V685.9l-166.9 38.7z m-186 86.6c89.6 0 162.5-72.8 162.5-162.3 0-112-122.2-238-162.8-276.9-40.5 38.9-162.1 164.9-162.1 276.9 0 89.5 72.8 162.3 162.4 162.3zM40 712.2l276-65.5v-673.2L40 24.8V712.2z m946-737.1l-276 80.1v143c0 10.9-8.6 19.7-19.5 19.7s-19.5-8.8-19.5-19.7v-143.9l-316-79.9V645.7l117.7 29.6c-1.2-8.7-2.6-17.4-2.6-26.4 0-151.5 180.8-311.8 188.5-318.6l13-11.4 13 11.3c7.7 6.7 189.3 167 189.3 318.6 0 11.2-2.2 21.9-3.9 32.6l116-26.9v-679.4z"  horiz-adv-x="1025" />

    
    <glyph glyph-name="sousuolannei" unicode="&#58968;" d="M1004.599047-21.901924L804.538377 178.258626c56.532371 74.910386 90.391865 167.899144 90.391865 268.978224 0 247.204272-200.360311 447.564583-447.464703 447.564584S0.000836 694.441123 0.000836 447.23685c0-247.204272 200.360311-447.564583 447.464703-447.564583 101.178961 0 194.2676 33.959375 269.177986 90.691507L916.704194-109.796776c24.270965-24.270965 63.623887-24.270965 87.894853 0 24.270965 24.270965 24.270965 63.623887 0 87.894852zM85.298795 447.23685c0 199.761028 162.505596 362.366505 362.266625 362.366505s362.266624-162.505596 362.266624-362.366505c0-199.761028-162.505596-362.366505-362.266624-362.366504S85.298795 247.375942 85.298795 447.23685z"  horiz-adv-x="1024" />

    
    <glyph glyph-name="shouyejiantouxia" unicode="&#58969;" d="M512 92.2L0 604.1l72.1 72.1L512 236.4l439.9 439.8 72.1-72.1z"  horiz-adv-x="1024" />

    
    <glyph glyph-name="jinru" unicode="&#58970;" d="M529.5 896l-52-53.9 442-458.1-442-458.1 52-53.9 494 512z"  horiz-adv-x="1024" />

    
    <glyph glyph-name="guanbi1" unicode="&#58971;" d="M1023.800039 859.807069L987.607108 896 511.90002 420.292912 36.192931 896 0 859.807069l475.707088-475.707089L0-91.607108l36.192931-36.192931L511.90002 347.907049l475.707088-475.707088 36.192931 36.192931-475.707088 475.707088z"  horiz-adv-x="1024" />

    
    <glyph glyph-name="pingfenxingxing" unicode="&#58972;" d="M512 871.2l158.2-320.6 353.8-51.4-256-249.6 60.4-352.4L512 63.6 195.6-102.8 256 249.6 0 499.2l353.8 51.4z"  horiz-adv-x="1024" />

    
    <glyph glyph-name="shouyejiantouyou" unicode="&#58973;" d="M1023.800039 384.09998l-511.800039-511.900019-72.085921 72.085921 439.714119 439.814098L439.914079 823.914079 512 896z"  horiz-adv-x="1024" />

    
    <glyph glyph-name="dizhixuanzhong" unicode="&#58974;" d="M981.6 725.1L357.5 128.2 42.4 444 0 401.4l357.5-358.3L1024 682.6z"  horiz-adv-x="1024" />

    
    <glyph glyph-name="qumanmanbanxing" unicode="&#58975;" d="M1024.7 499.2l-353.6 51.4L513 871.2v-807.6l316.3-166.4-60.5 352.4zM513 63.6V871.2L354.6 550.6 0.8 499.2l255.9-249.6-60.3-352.4z"  horiz-adv-x="1024" />

    
    <glyph glyph-name="yinghuochongbanxing" unicode="&#58976;" d="M1024.7 499.2l-353.6 51.4L513 871.2v-807.6l316.3-166.4-60.5 352.4zM513 63.6V871.2L354.6 550.6 0.8 499.2l255.9-249.6-60.3-352.4z"  horiz-adv-x="1024" />

    
    <glyph glyph-name="gangaoshou" unicode="&#59077;" d="M512.042061 896a511.992515 511.992515 0 1 1 511.957941-511.992515A511.992515 511.992515 0 0 1 512.042061 896z m-37.373483-384.729064v248.926066h74.712392v-248.926066h112.051303l-149.390212-248.926066-149.424786 248.926066z m353.198428-405.714914H196.182542V429.263627h101.471944v-236.548909h428.706003V429.263627h101.471944z"  horiz-adv-x="1024" />

    
    <glyph glyph-name="chanpinbianma" unicode="&#59080;" d="M550.4 105.216v-38.656a320.256 320.256 0 0 1 279.04 279.04h-38.656a281.6 281.6 0 0 0-240.384-240.384zM550.4 157.184a230.4 230.4 0 0 1 188.416 188.416H716.8a38.4 38.4 0 0 0 0 76.8h21.76a230.4 230.4 0 0 1-188.416 188.416v-24.32a38.4 38.4 0 1 0-76.8 0v24.32a230.4 230.4 0 0 1-188.416-188.416h25.6a38.4 38.4 0 0 0 0-76.8h-25.6a230.4 230.4 0 0 1 188.416-188.416v25.6a38.4 38.4 0 0 0 76.8 0zM233.216 345.6H194.56a320.256 320.256 0 0 1 279.04-279.04v38.656a281.6 281.6 0 0 0-240.384 240.384zM512 896a512 512 0 1 1 512-512A512 512 0 0 1 512 896z m435.2-550.4h-40.448A397.312 397.312 0 0 0 550.4-10.752v-36.608a38.4 38.4 0 0 0-76.8 0v36.608A397.312 397.312 0 0 0 117.248 345.6H79.872a38.4 38.4 0 0 0 0 76.8h37.376A397.312 397.312 0 0 0 473.6 778.752V816.896a38.4 38.4 0 0 0 76.8 0v-38.144A397.312 397.312 0 0 0 906.752 422.4H947.2a38.4 38.4 0 0 0 0-76.8zM550.4 701.44v-38.656a281.6 281.6 0 0 0 240.384-240.384h38.656A320.256 320.256 0 0 1 550.4 701.44zM473.6 662.784V701.44A320.256 320.256 0 0 1 194.56 422.4h38.656a281.6 281.6 0 0 0 240.384 240.384z"  horiz-adv-x="1024" />

    
    <glyph glyph-name="xuanzhong" unicode="&#59081;" d="M512 896a512 512 0 1 1 512-512A512 512 0 0 1 512 896z m-92.416-730.368l-90.368-68.864-68.864 90.368-155.136 204.8L195.84 460.8l153.6-204.8L844.8 631.552l68.864-90.624z"  horiz-adv-x="1024" />

    
    <glyph glyph-name="dianpu" unicode="&#59097;" d="M512 896a512 512 0 1 1 512-512A512 512 0 0 1 512 896z m-242.432-190.976h484.096a33.792 33.792 0 0 0 33.536-33.792A32.256 32.256 0 0 0 753.664 640H269.568a33.536 33.536 0 0 0-33.536 32.768 32.512 32.512 0 0 0 33.536 32.256z m530.432-607.488a33.536 33.536 0 0 0-33.536-33.536H258.304a33.536 33.536 0 0 0-33.536 33.536v222.72a102.4 102.4 0 0 1 22.528-1.536h11.008a20.992 20.992 0 0 1 9.728 1.536h1.536a5.632 5.632 0 0 1 4.864 1.536l17.664 4.864v-163.328h440.832v163.328l17.408-4.864a5.632 5.632 0 0 0 4.864-1.536h1.536c3.328 0 6.4-1.536 9.728-1.536h11.264a108.8 108.8 0 0 1 22.272 1.536z m-24.064 253.184a89.088 89.088 0 0 0-88.064 88.064 88.32 88.32 0 0 0-176.384 0 88.064 88.064 0 0 0-176.128 0 88.32 88.32 0 0 0-176.384 0l62.464 166.656h581.888l60.928-166.656a89.088 89.088 0 0 0-88.32-88.064z"  horiz-adv-x="1024" />

    
    <glyph glyph-name="hongbao" unicode="&#59098;" d="M512 716.8a332.8 332.8 0 1 1 332.8-332.8A332.8 332.8 0 0 1 512 716.8z m0-652.8A320 320 0 1 0 832 384 320.512 320.512 0 0 0 512 64zM598.016 559.616L512 387.84l-86.016 171.776h-81.152l109.568-198.656h-72.448v-37.632h93.44l0.768-0.512v-47.36h-94.208v-37.632h94.208v-85.504h71.68v85.504h94.72v37.632h-94.72v47.36l0.768 0.512h93.952V360.96h-72.96l109.568 198.656h-81.152zM512 896a512 512 0 1 1 512-512A512 512 0 0 1 512 896z m0-921.6a409.6 409.6 0 1 0 409.6 409.6 409.6 409.6 0 0 0-409.6-409.6z"  horiz-adv-x="1024" />

    
    <glyph glyph-name="fushi" unicode="&#59099;" d="M512 593.152c-41.984 76.8-135.936 37.632-146.176-29.952s26.88-99.328 76.8-139.008A849.408 849.408 0 0 0 512 364.288a849.408 849.408 0 0 0 69.376 59.904c49.92 39.68 87.296 71.68 76.8 139.008S553.984 669.44 512 593.152zM512 896a512 512 0 1 1 512-512A512 512 0 0 1 512 896z m249.344-498.944a16.128 16.128 0 0 0 0-4.864c0-10.24-8.192-20.224-22.784-28.928a466.688 466.688 0 0 0-24.064-92.672H707.072l-12.544-6.4-2.56-1.28C674.304 179.2 647.68 13.824 640 0v-1.792l-1.28-1.792-1.792-2.048-1.28-1.28a111.36 111.36 0 0 0-30.208-18.944l-3.584-1.536-4.096-1.536a212.224 212.224 0 0 0-47.616-12.032L537.6-51.2h-32a201.984 201.984 0 0 0-57.856 11.264h-3.584l-3.84 1.536-5.12 3.072h-3.072A83.456 83.456 0 0 0 389.376 0c-1.792 3.84-6.656 25.6-12.8 57.6v30.976l-8.448 13.824c-1.536 8.448-3.328 17.152-4.864 25.6v13.568c-2.304 11.52-4.352 23.04-6.4 34.048-2.816 14.848-5.376 28.928-7.68 41.216-2.304 13.824-4.608 25.6-6.144 34.304a111.616 111.616 0 0 0-29.184 17.408 528.128 528.128 0 0 0-33.28 93.44c-14.848 8.96-23.296 18.944-23.296 29.44a25.6 25.6 0 0 0 2.56 10.24 15.872 15.872 0 0 0-8.448 9.728c-2.048 11.776 18.432 25.6 30.208 33.792 0 4.864-1.28 9.728-1.792 14.592v6.656 6.144a67.072 67.072 0 0 0 0 7.168 230.4 230.4 0 0 0 3.328 37.888c-21.504 8.192-7.424 49.408 0 62.464a246.784 246.784 0 0 0 108.8 114.432h3.328l14.336 13.312a19.2 19.2 0 0 0 0 6.656 17.92 17.92 0 0 0 17.92 17.92 16.896 16.896 0 0 0 5.376 0 61.184 61.184 0 0 0 51.2 59.648 47.104 47.104 0 0 0 44.544-21.248c0 2.048 1.28 4.352 2.048 6.656a76.8 76.8 0 0 0 12.032 21.76 56.576 56.576 0 0 0 20.48 14.848 70.4 70.4 0 0 0 25.6 5.888 5.12 5.12 0 0 0 0-10.24 54.272 54.272 0 0 1-21.248-4.096 44.8 44.8 0 0 1-17.664-12.544 64.768 64.768 0 0 1-11.52-18.944l-4.096-6.144a43.008 43.008 0 0 0 48.384-30.208 81.408 81.408 0 0 0 1.792-17.152 163.072 163.072 0 0 0 20.224-7.68l8.448-4.096a17.664 17.664 0 0 0 16.384 11.008 17.92 17.92 0 0 0 17.92-17.92 17.408 17.408 0 0 0-4.096-11.264l5.376-4.096a257.792 257.792 0 0 0 102.4-226.816s24.32-23.552 23.552-37.12a32 32 0 0 0-13.312-25.6z"  horiz-adv-x="1024" />

    
    <glyph glyph-name="lama" unicode="&#59100;" d="M403.2 354.816c-7.424 13.056 3.328 25.6-17.152 6.4a494.336 494.336 0 0 1-55.552-62.464c-9.984-18.176 0-21.248 0-21.248l108.032-153.6s37.632 67.84 29.44 98.048a1064.96 1064.96 0 0 1-64.768 132.864zM683.776 186.88a34.816 34.816 0 0 1-27.648 1.792 33.792 33.792 0 0 1-19.456-19.456 35.072 35.072 0 0 1-19.712 19.456 34.048 34.048 0 0 1-28.16-1.792c-32.512-16.384-17.664-71.68 48.384-103.68 64.256 32 79.616 87.296 46.592 103.68zM512 896a512 512 0 1 1 512-512A512 512 0 0 1 512 896z m256-806.656a175.872 175.872 0 0 0-25.6-79.616H386.304a133.632 133.632 0 0 0 37.632 69.12s-142.08 162.048-155.648 184.32-13.824 33.536-6.912 43.264a1146.368 1146.368 0 0 0 90.368 133.888 1783.04 1783.04 0 0 1 121.088 139.008c20.48 25.6-11.008 61.696-22.784 69.888 0 0 22.784-114.688-71.68-122.624a79.104 79.104 0 0 0-75.52 43.264s73.216-36.864 64.512 34.56-10.496 171.264 58.88 200.704a76.8 76.8 0 0 0 61.952-8.96 128 128 0 0 0 126.208-6.656 97.792 97.792 0 0 0 61.184-105.728h-20.224a35.584 35.584 0 0 1 8.448-38.912c18.688-13.312 11.52-23.808 6.144-25.6a31.488 31.488 0 0 0-16.896 0 9.216 9.216 0 0 1-4.352-10.752c2.048-9.984-9.472-9.984-9.472-9.984s6.4-7.68 3.328-12.032-14.336-8.704-12.544-15.104-1.28-20.736-21.504-17.408c-26.88 4.864-32.512 22.528-56.576 19.456s-29.44-66.816 34.816-114.432a1031.68 1031.68 0 0 1 90.112-61.184 22.528 22.528 0 0 0 10.752-23.04 79.104 79.104 0 0 0-54.528-69.888s144.384-78.336 134.912-215.552z"  horiz-adv-x="1024" />

    
    <glyph glyph-name="meishi" unicode="&#59101;" d="M439.808 337.152a40.448 40.448 0 0 0 14.592-25.6h-17.664a25.6 25.6 0 0 1-10.24 15.872 34.56 34.56 0 0 1-18.944 4.864 30.208 30.208 0 0 1-25.6-11.776 48.128 48.128 0 0 1-7.936-29.696 49.408 49.408 0 0 1 7.68-29.696 36.352 36.352 0 0 1 45.824-5.632 32.512 32.512 0 0 1 11.008 18.944h17.664a48.896 48.896 0 0 0-17.152-30.208 48.128 48.128 0 0 0-30.464-10.24 48.896 48.896 0 0 0-40.96 17.408 61.696 61.696 0 0 0-11.52 39.424 60.928 60.928 0 0 0 12.032 39.936 48.384 48.384 0 0 0 40.192 17.408 49.152 49.152 0 0 0 31.488-11.008zM533.248 307.2a30.208 30.208 0 0 0 7.424-22.016v-51.2h-16.384v10.496a28.928 28.928 0 0 0-11.52-9.216 43.52 43.52 0 0 0-17.664-3.584 28.672 28.672 0 0 0-19.456 6.4 20.992 20.992 0 0 0-7.424 17.152 25.6 25.6 0 0 0 11.52 22.272 47.104 47.104 0 0 0 25.6 6.4h17.408v2.048c0 10.24-5.888 15.36-17.152 15.36a25.6 25.6 0 0 1-12.288-2.816 13.056 13.056 0 0 1-5.888-9.984h-17.408a28.16 28.16 0 0 0 12.032 21.248 45.056 45.056 0 0 0 25.6 5.632 33.536 33.536 0 0 0 25.6-8.192z m-9.984-36.096h-16.128c-14.08 0-20.992-5.12-20.992-14.848a8.96 8.96 0 0 1 3.328-7.168 13.056 13.056 0 0 1 9.472-3.072 25.6 25.6 0 0 1 17.664 5.888 21.248 21.248 0 0 1 6.656 16.128zM583.936 340.48v-25.6h17.664v-14.336h-17.664V256a5.888 5.888 0 0 1 1.28-4.096 5.376 5.376 0 0 1 4.096-1.536h10.24v-14.336h-13.312a19.456 19.456 0 0 0-15.104 5.376 21.76 21.76 0 0 0-4.608 14.592v44.544h-14.336v14.336h14.336V332.8zM678.4 303.872a52.736 52.736 0 0 0 9.472-33.536h-59.392a28.416 28.416 0 0 1 6.144-16.896 18.432 18.432 0 0 1 14.592-5.888 21.76 21.76 0 0 1 13.056 3.84 23.808 23.808 0 0 1 6.912 9.472h17.664a36.352 36.352 0 0 0-11.264-18.432 38.912 38.912 0 0 0-25.6-9.216 37.888 37.888 0 0 0-28.16 11.008 48.128 48.128 0 0 0 0 60.672 34.048 34.048 0 0 0 27.904 12.032 36.096 36.096 0 0 0 28.672-13.056z m-43.008-6.144a25.6 25.6 0 0 1-6.656-14.08h40.96a18.944 18.944 0 0 1-20.736 19.2 17.664 17.664 0 0 1-13.568-5.12zM512 896a512 512 0 1 1 512-512A512 512 0 0 1 512 896z m335.36-829.44a513.792 513.792 0 0 0-113.408 79.872l-23.808 20.992 2.816 37.376-34.56 4.608c-9.728-61.184-17.664-113.152-17.664-113.152s-4.096-69.376-43.52-62.208-31.744 41.216-25.6 80.128c2.56 14.848 13.056 54.528 25.6 100.096-17.92 0-38.144 2.048-60.416 2.304 2.816-52.736 4.864-93.952 4.864-93.952s8.448-67.072-34.048-68.864-37.12 34.56-37.12 74.24c0 13.312 2.304 47.616 5.376 88.576-25.6 0-49.664 0-70.144-1.792l30.976-102.4s24.32-63.232-16.64-75.008-45.056 25.6-54.528 62.976c-3.84 15.36-11.776 59.392-20.224 109.312-15.616-1.536-28.416-3.328-39.168-4.864l6.656-39.936-38.656-33.28a300.032 300.032 0 0 0-112.384-66.304l65.024 104.704-102.4 20.48A375.296 375.296 0 0 1 253.184 256l23.808 18.432-9.216 71.424s25.6 6.656 72.704 13.568c-2.816 17.152-5.12 30.72-6.4 38.144-7.168 43.008-11.008 63.232-11.008 63.232a47.104 47.104 0 0 1-22.528 32c-25.6 10.24-73.728 16.384-87.04 100.096s11.776 157.44 51.2 165.12c40.96 12.288 94.72-41.984 122.624-121.856a105.216 105.216 0 0 0-33.792-130.304 43.008 43.008 0 0 1-5.888-38.912s4.608-16.64 19.2-61.44c2.56-7.68 7.168-22.272 13.056-41.216 35.84 4.096 79.104 7.424 128 8.192 2.048 25.6 3.584 46.336 4.352 56.32a583.68 583.68 0 0 1 0 73.216v5.12c0 9.984-41.728 32.768-45.824 65.28s24.32 201.984 25.6 210.176 4.608 9.472 6.4 9.216 1.28-1.792 1.28-1.792-4.864-163.584-4.864-168.448 0-9.472 5.376-9.728 6.144 6.912 6.144 6.912 8.704 156.928 9.984 167.168 5.888 1.792 5.888 1.792v-166.656s0-10.496 6.144-11.008 8.192 11.008 8.192 11.008V787.712s4.608 8.192 5.888-1.792 9.984-167.168 9.984-167.168 0-6.912 6.144-6.912 5.632 4.864 5.376 9.728-5.12 168.448-5.12 168.448l1.536 1.792c1.536 1.792 5.376 0 6.4-9.216s29.44-177.408 25.6-210.176-45.824-55.296-45.824-65.28v-5.888c0-2.56-1.536-20.48 0-69.12 0-9.984 1.28-32 2.56-59.392 41.472 0 78.592-3.328 110.08-6.912 3.328 11.776 5.888 21.76 7.936 29.44a51.2 51.2 0 0 0-10.24 2.304c-14.08 4.096-8.704 7.168 12.032 130.56 22.272 133.888 86.528 212.224 102.4 217.344s9.472-19.456 9.472-19.456L712.448 409.6c0-3.84-1.792-7.68-2.56-11.776s-4.096-21.248-7.168-38.912a653.056 653.056 0 0 0 72.448-14.336l-8.704-68.864 11.264-9.728a433.152 433.152 0 0 1 111.36-76.8l-106.496-9.984z"  horiz-adv-x="1024" />

    
    <glyph glyph-name="pinpai" unicode="&#59102;" d="M512 723.456A262.4 262.4 0 1 1 774.4 460.8 262.656 262.656 0 0 1 512 723.456z m0-512A249.6 249.6 0 1 0 761.6 460.8 249.856 249.856 0 0 0 512 211.456zM512 896a512 512 0 1 1 512-512A512 512 0 0 1 512 896z m226.56-768l-33.28-96-81.92 142.08a302.08 302.08 0 0 0-216.576-2.304l-88.064-153.6-33.28 95.744-99.84-18.944 94.208 163.072a307.2 307.2 0 1 0 468.736 5.12l89.856-155.392zM308.992 525.824h51.2a39.168 39.168 0 0 0 25.6-7.936 25.6 25.6 0 0 0 8.704-19.712 25.6 25.6 0 0 0-17.152-25.6 25.6 25.6 0 0 0 16.128-8.704 26.88 26.88 0 0 0 5.376-17.664 27.904 27.904 0 0 0-11.264-25.6 51.2 51.2 0 0 0-27.392-6.4h-51.2z m18.176-14.848v-31.232h27.392a27.648 27.648 0 0 1 16.384 3.84 15.104 15.104 0 0 1 4.608 12.288 13.824 13.824 0 0 1-4.608 11.52 28.928 28.928 0 0 1-16.128 3.584z m0-46.08v-34.048h29.696a34.816 34.816 0 0 1 16.128 3.072 14.08 14.08 0 0 1 7.168 13.312 16.384 16.384 0 0 1-5.376 13.568 28.672 28.672 0 0 1-17.408 4.096zM460.8 495.616v-17.408a42.752 42.752 0 0 1-11.264 1.536 17.152 17.152 0 0 1-12.544-5.376 22.016 22.016 0 0 1-6.4-16.128v-42.24h-17.408v79.36h17.408v-11.264a25.6 25.6 0 0 0 7.68 9.216 19.2 19.2 0 0 0 12.544 4.352 23.808 23.808 0 0 0 9.984-2.048zM532.992 488.96a31.232 31.232 0 0 0 7.424-22.272v-51.2h-16.384v10.496a28.928 28.928 0 0 0-11.52-9.216 43.52 43.52 0 0 0-17.664-3.328 28.672 28.672 0 0 0-19.456 6.144 21.504 21.504 0 0 0-7.424 17.408 25.6 25.6 0 0 0 11.52 22.272 49.408 49.408 0 0 0 25.6 6.144h17.408v1.792c0 10.24-5.888 15.616-17.152 15.616a21.76 21.76 0 0 1-12.288-3.072 12.544 12.544 0 0 1-5.888-9.728h-17.408a27.648 27.648 0 0 0 12.032 20.992 45.056 45.056 0 0 0 25.6 5.888 34.56 34.56 0 0 0 25.6-7.936z m-9.984-36.096h-16.128c-14.08 0-20.992-4.864-20.992-14.848a9.472 9.472 0 0 1 3.328-7.168 14.336 14.336 0 0 1 9.472-2.816 25.6 25.6 0 0 1 17.664 5.888 20.224 20.224 0 0 1 6.656 15.872zM629.76 465.152v-49.152h-17.664v47.616c0 12.8-5.888 19.456-17.92 19.456a15.36 15.36 0 0 1-11.264-4.608 21.76 21.76 0 0 1-6.656-14.592v-47.872h-17.408v79.36h17.408V486.4a31.744 31.744 0 0 0 10.496 8.448 27.392 27.392 0 0 0 13.056 3.072c19.968-0.256 29.952-11.52 29.952-32.768zM704.512 527.872h17.664v-111.872h-16.384v8.448a28.672 28.672 0 0 0-23.808-10.496 33.536 33.536 0 0 0-27.648 12.288 46.592 46.592 0 0 0-9.216 29.952 44.032 44.032 0 0 0 8.96 28.928 31.744 31.744 0 0 0 26.88 12.544 28.672 28.672 0 0 0 23.552-13.056z m-36.864-51.2a34.048 34.048 0 0 1-4.608-19.456 38.4 38.4 0 0 1 4.352-19.968 19.2 19.2 0 0 1 17.152-8.192 18.432 18.432 0 0 1 15.872 8.192 35.072 35.072 0 0 1 4.864 18.944 31.232 31.232 0 0 1-6.144 20.224 17.664 17.664 0 0 1-14.08 6.912 20.224 20.224 0 0 1-17.408-7.68z"  horiz-adv-x="1024" />

    
    <glyph glyph-name="naifen" unicode="&#59103;" d="M249.088 215.552l27.136-46.848 26.88-46.592 26.88 46.592 26.88 46.848H249.088zM407.552 122.112h53.76l-26.88 46.592-26.88 46.848-26.88-46.848-27.136-46.592h54.016zM457.984 215.552l27.136-46.848L512 122.112l26.88 46.592 26.88 46.848h-107.776zM667.136 215.552l26.88-46.848 26.88-46.592 26.88 46.592 27.136 46.848h-107.776zM616.448 122.112h53.76l-26.88 46.592-26.88 46.848-26.88-46.848-26.88-46.592h53.76zM512 896a512 512 0 1 1 512-512A512 512 0 0 1 512 896zM238.08 694.784a14.848 14.848 0 0 0 6.656 1.536l16.64 8.192a39.168 39.168 0 0 0 30.72 20.48 38.144 38.144 0 0 1 25.6 13.312l11.776 13.824a38.4 38.4 0 0 0 25.6 13.568l22.528 2.304a32.256 32.256 0 0 0 9.984 0h4.352a35.584 35.584 0 0 0 4.864-1.536 36.608 36.608 0 0 0 15.36-12.544l8.704-11.776a38.4 38.4 0 0 1 11.008-10.24l25.6-15.36c8.704-5.376 15.104-5.632 17.408-15.616l4.096-2.56h296.192a30.976 30.976 0 0 0 0-61.696h-281.6a41.984 41.984 0 0 1-40.448-30.976 41.984 41.984 0 0 0-40.448-30.72h-121.088a41.728 41.728 0 0 0-40.448 30.72L230.4 677.888a15.616 15.616 0 0 0 0 6.912 14.592 14.592 0 0 0 7.68 9.984z m568.576-228.864a31.744 31.744 0 0 0-31.744-32v-390.656A43.008 43.008 0 0 0 731.904 0H292.096a43.264 43.264 0 0 0-30.464 12.544 43.008 43.008 0 0 0-12.544 30.464V433.92a31.744 31.744 0 0 0-31.744 32V486.4a31.744 31.744 0 0 0 31.744 31.744h525.824A31.744 31.744 0 0 0 806.656 486.4z"  horiz-adv-x="1024" />

    
    <glyph glyph-name="meizhuang" unicode="&#59104;" d="M512 896a512 512 0 1 1 512-512A512 512 0 0 1 512 896z m-65.792-107.264a240.384 240.384 0 0 0 131.84 0 247.552 247.552 0 0 0 171.008-239.104 251.904 251.904 0 0 0-102.4-204.8h-61.952v25.856a195.328 195.328 0 0 1 112.64 179.2A189.952 189.952 0 0 1 512 743.936a190.208 190.208 0 0 1-185.088-194.304 194.816 194.816 0 0 1 112.64-179.2v-26.88h-60.928a251.904 251.904 0 0 0-102.4 204.8 247.552 247.552 0 0 0 169.984 240.384zM512 128c-102.4 0-187.648 44.8-187.648 99.84S409.6 327.936 512 327.936s187.648-44.8 187.648-99.84S615.68 128 512 128z m193.024 68.096C694.272 143.104 612.096 102.4 512 102.4s-182.016 41.472-193.024 94.72c23.808-47.616 100.096-81.664 193.024-81.664s169.216 33.28 193.28 80.896z m-252.416 147.456v21.76a174.592 174.592 0 0 1 118.528 0v-21.76zM512 18.944a298.496 298.496 0 0 0-216.064 81.664A353.28 353.28 0 0 1 512 35.584a353.024 353.024 0 0 1 215.808 65.024A298.24 298.24 0 0 0 512 18.944z m0 30.208c-142.08 0-257.792 67.328-257.792 150.016 0 54.784 46.08 102.4 115.968 131.072h31.232c-56.32-20.48-94.208-56.32-96.512-98.048v-4.096s0-28.416 1.28-32.768a82.432 82.432 0 0 1 5.12-17.152c22.528-51.2 102.4-90.112 200.704-90.112 102.4 0 184.576 40.704 203.264 96.512l1.536 4.608a72.192 72.192 0 0 1 2.304 18.176v23.552c-2.304 41.728-40.192 76.8-96.768 98.304h31.488c69.888-28.16 115.968-76.8 115.712-131.072 0.256-81.664-115.456-148.992-257.536-148.992z"  horiz-adv-x="1024" />

    
    <glyph glyph-name="zhiniaoku" unicode="&#59105;" d="M241.408 517.632m-24.064 0a24.064 24.064 0 1 1 48.128 0 24.064 24.064 0 1 1-48.128 0ZM331.52 517.632m-24.064 0a24.064 24.064 0 1 1 48.128 0 24.064 24.064 0 1 1-48.128 0ZM421.632 517.632m-24.064 0a24.064 24.064 0 1 1 48.128 0 24.064 24.064 0 1 1-48.128 0ZM512 517.632m-24.064 0a24.064 24.064 0 1 1 48.128 0 24.064 24.064 0 1 1-48.128 0ZM602.112 517.632m-24.064 0a24.064 24.064 0 1 1 48.128 0 24.064 24.064 0 1 1-48.128 0ZM692.224 517.632m-24.064 0a24.064 24.064 0 1 1 48.128 0 24.064 24.064 0 1 1-48.128 0ZM782.592 517.632m-24.064 0a24.064 24.064 0 1 1 48.128 0 24.064 24.064 0 1 1-48.128 0ZM512 896a512 512 0 1 1 512-512A512 512 0 0 1 512 896z m339.2-391.936a25.6 25.6 0 0 0-7.68-18.944v-139.264a51.2 51.2 0 0 0-32.256-47.36c-94.976-36.096-163.072-186.624-183.04-236.032a25.6 25.6 0 0 0-23.808-15.872h-188.672a25.6 25.6 0 0 0-23.552 15.872c-19.712 49.152-86.016 197.632-179.2 234.496a51.2 51.2 0 0 0-31.744 47.104v140.544a25.6 25.6 0 0 0-8.448 19.456V542.72a25.6 25.6 0 0 0 8.448 20.48v25.6a25.6 25.6 0 0 0 25.6 25.6H819.2a25.6 25.6 0 0 0 25.6-25.6v-25.6a25.6 25.6 0 0 0 7.68-18.944z"  horiz-adv-x="1024" />

    
    <glyph glyph-name="youhui" unicode="&#59106;" d="M200.96 288h614.4v-12.8h-614.4zM512 896a512 512 0 1 1 512-512A512 512 0 0 1 512 896z m339.968-394.496L823.552 512h-5.888l11.008-9.216 9.216-7.68 5.888-4.352 2.048-11.776V281.6h-15.36v-186.624H185.344V281.6h-15.36v197.888l5.12 13.824 4.096 2.304 41.984 34.816 17.152 14.336c-55.808-6.912-93.952-20.736-114.944-41.728a196.352 196.352 0 0 0 45.056 88.064 230.4 230.4 0 0 0 82.432 20.48 123.392 123.392 0 0 0 16.64 0 276.736 276.736 0 0 0 34.56 83.2A259.328 259.328 0 0 0 384 665.6c15.872-9.728 29.184-18.432 40.704-25.6a309.248 309.248 0 0 0 66.304-51.2 12.8 12.8 0 0 0 8.448 3.072h19.968a13.312 13.312 0 0 0 7.424-2.304 479.232 479.232 0 0 0 57.6 45.056c12.288 7.424 29.952 17.92 49.152 30.976A259.328 259.328 0 0 0 716.8 696.32a325.12 325.12 0 0 0 38.4-97.792 347.136 347.136 0 0 0 55.296-4.864 174.08 174.08 0 0 0 72.192-27.136 215.04 215.04 0 0 0 40.448-102.4 244.992 244.992 0 0 1-71.168 37.376zM401.408 471.552a47.36 47.36 0 0 0 17.664-36.352h-23.808a32.512 32.512 0 0 1-11.264 20.48 40.96 40.96 0 0 1-24.32 5.888 45.824 45.824 0 0 1-20.992-3.84 16.64 16.64 0 0 1 0-30.208 174.592 174.592 0 0 1 25.6-8.96 219.904 219.904 0 0 0 38.4-14.336 35.072 35.072 0 0 0 18.944-31.488 36.864 36.864 0 0 0-15.36-31.232 72.96 72.96 0 0 0-43.264-11.264 73.472 73.472 0 0 0-42.24 10.496 48.128 48.128 0 0 0-19.968 40.704h23.552a34.304 34.304 0 0 1 12.032-23.808 46.336 46.336 0 0 1 25.6-6.4 51.2 51.2 0 0 1 25.6 5.376 16.64 16.64 0 0 1 9.472 14.592 20.736 20.736 0 0 1-13.824 18.432c-3.328 1.536-12.8 4.864-28.416 9.728a197.888 197.888 0 0 0-33.536 12.288 32 32 0 0 0-16.896 29.44 34.816 34.816 0 0 0 16.384 30.464 65.792 65.792 0 0 0 38.912 10.752 66.56 66.56 0 0 0 41.728-10.752zM528.64 425.984a57.344 57.344 0 0 0 14.336-39.936 56.32 56.32 0 0 0-14.336-39.936 55.552 55.552 0 0 0-76.8 0 56.576 56.576 0 0 0-14.336 39.936 55.552 55.552 0 0 0 14.592 39.936 51.2 51.2 0 0 0 38.656 15.872 51.2 51.2 0 0 0 37.888-15.872z m-61.44-14.592a51.2 51.2 0 0 1 0-51.2 25.6 25.6 0 0 1 22.528-11.52 25.6 25.6 0 0 1 22.528 11.52 42.752 42.752 0 0 1 7.168 25.6 41.728 41.728 0 0 1-7.168 25.6 25.6 25.6 0 0 1-22.528 11.52 25.6 25.6 0 0 1-22.528-11.52zM565.504 482.304H588.8V332.8h-23.552zM691.2 482.304h23.296V332.8h-21.76v11.264a37.376 37.376 0 0 0-31.744-14.08 44.288 44.288 0 0 0-36.864 16.64 61.696 61.696 0 0 0-12.288 39.68 59.136 59.136 0 0 0 12.032 38.656 42.752 42.752 0 0 0 35.84 16.64 38.656 38.656 0 0 0 31.488-17.408z m-49.152-69.632a43.776 43.776 0 0 1-6.4-25.6 49.152 49.152 0 0 1 5.888-25.6 25.6 25.6 0 0 1 22.784-11.008 25.6 25.6 0 0 1 21.248 10.752A45.312 45.312 0 0 1 691.2 384v1.792a41.216 41.216 0 0 1-8.192 25.6 22.784 22.784 0 0 1-18.688 9.216 25.6 25.6 0 0 1-22.528-7.936z"  horiz-adv-x="1024" />

    
    <glyph glyph-name="youyouyanxuan" unicode="&#59107;" d="M512 844.8A460.8 460.8 0 1 0 51.2 384 460.8 460.8 0 0 0 512 844.8m0 51.2a512 512 0 1 1 512-512A512 512 0 0 1 512 896zM512 551.424c-75.264 136.704-243.456 67.328-262.144-53.248s48.384-179.2 137.728-249.6A1478.144 1478.144 0 0 0 512 141.312a1478.144 1478.144 0 0 0 124.416 107.264c89.344 71.168 156.416 128 137.728 249.6S587.264 688.128 512 551.424z"  horiz-adv-x="1024" />

    
    <glyph glyph-name="wode-yingpian" unicode="&#58977;" d="M907.536481-128H117.262583C53.137729-128 0.998829-75.261803 0.998829-10.537651V523.636364c0 12.884901 10.387827 23.272727 23.272728 23.272727s23.272727-10.387827 23.272727-23.272727v-534.174015c0-38.854467 31.263363-70.517362 69.718299-70.517363h790.373781c38.454936 0 69.718299 31.662895 69.718299 70.517363V777.239173c0 38.854467-31.263363 70.517362-69.718299 70.517362H117.262583c-38.454936 0-69.718299-31.662895-69.718299-70.517362v-66.122513c0-12.884901-10.387827-23.272727-23.272727-23.272727C11.386656 687.943816 0.998829 698.331643 0.998829 711.11666v66.122513C0.998829 842.063207 53.137729 894.801405 117.262583 894.801405h790.373781C971.661334 894.801405 1023.800234 842.063207 1023.800234 777.239173v-787.776824c0-64.724151-52.1389-117.462349-116.263753-117.462349zM24.271557 614.829497m-23.272728 0a23.272727 23.272727 0 1 1 46.545455 0 23.272727 23.272727 0 1 1-46.545455 0ZM233.426453 847.357004v-92.991027H45.147093v-46.545454h188.27936v-185.982052H47.444401v-46.445572h185.982052v-185.982052H47.444401v-46.445572h185.982052V56.983223H47.444401v-46.545455h185.982052v-92.891143h46.545455V847.357004zM977.055014 707.820523v46.545454H791.072961V847.357004h-46.445571v-929.810379H791.072961v92.891143h185.982053V56.983223H791.072961V242.965275h185.982053v46.445572H791.072961V475.392899h185.982053v46.445572H791.072961V707.820523zM596.401092 460.410456c14.782677 0 28.666407-5.793211 39.154117-16.181037 21.574717-21.574717 21.574717-56.633632 0-78.20835L512.399532 242.965275 389.343738 366.021069c-10.48771 10.48771-16.181038 24.37144-16.181038 39.154116 0 14.782677 5.793211 28.666407 16.181038 39.154117 10.48771 10.48771 24.37144 16.181038 39.154116 16.181037 40.752243 0 84.001561-61.128365 84.001561-61.128365s45.846274 61.028482 83.901677 61.028482m0 46.545455c-26.06945 0-52.1389-9.988295-72.015606-29.865002l-11.985954-11.985954-11.985954 11.985954c-19.876707 19.876707-45.946157 29.865002-72.015607 29.865002-26.06945 0-52.1389-9.988295-72.015607-29.865002-39.753414-39.753414-39.753414-104.177917 0-143.93133L512.399532 177.142411l156.017167 156.017168c39.753414 39.753414 39.753414 104.177917 0 143.93133-19.876707 19.876707-45.946157 29.865002-72.015607 29.865002z"  horiz-adv-x="1025" />

    
    <glyph glyph-name="wode-piaoquan" unicode="&#58978;" d="M21.4 603.5m-21.3 0a21.3 21.3 0 1 1 42.6 0 21.3 21.3 0 1 1-42.6 0ZM535.6 384.2l150.6 192h-41.4L514.9 410.6 385 576.2h-41.4l150.6-192H362.7v-42.7h128v-42.6H362.7v-42.7h128v-85.3h45v85.3h125.7v42.7H535.7v42.6h125.7v42.7H536.2zM1006.5 469.6h17.5v234c0 59.4-47.9 107.6-106.7 107.6H106.7C47.9 811.2 0 762.9 0 703.6v-14.5c0-11.8 9.6-21.3 21.3-21.3S42.7 677.3 42.7 689.1v14.5c0 35.8 28.7 64.9 64 64.9h810.7c35.3 0 64-29.1 64-64.9v-193.9c-60.5-10.2-106.7-63-106.7-126.3S920.9 267.2 981.4 257v-193.9c0-35.4-28.1-63.2-64-63.2H106.7c-35.9 0-64 27.7-64 63.2V257c60.5 10.2 106.7 63 106.7 126.3S103.2 499.4 42.7 509.6v8.7 0.1c0 11.8-9.6 21.4-21.3 21.4S0.1 530.2 0.1 518.4V469.6h21.3c49.9 0 89.9-43 84.9-93.9-4.3-44.4-44.2-76.9-88.7-76.9H0v-235.7c0-58.4 47.9-105.9 106.7-105.9h810.7c58.8 0 106.7 47.5 106.7 105.9V298.8H1002.7c-49.9 0-89.9 43-84.9 93.9 4.3 44.4 44.2 76.9 88.7 76.9z"  horiz-adv-x="1024" />

    
    <glyph glyph-name="wode-dingdan" unicode="&#58979;" d="M704.662371 554.766647h-384.92482c-11.497754 0-20.995899 9.398164-20.995899 20.995899v0.699864c0 11.497754 9.398164 20.995899 20.995899 20.995899h385.0248c11.497754 0 20.995899-9.398164 20.995899-20.995899v-0.699864c-0.09998-11.597735-9.498145-20.995899-21.095879-20.995899zM704.662371 384.09998h-384.92482c-11.497754 0-20.995899 9.398164-20.995899 20.9959v0.699863c0 11.497754 9.398164 20.995899 20.995899 20.995899h385.0248c11.497754 0 20.995899-9.398164 20.995899-20.995899v-0.699863c-0.09998-11.597735-9.498145-20.995899-21.095879-20.9959zM704.662371 213.433314h-384.92482c-11.497754 0-20.995899 9.398164-20.995899 20.995899v0.699863c0 11.497754 9.398164 20.995899 20.995899 20.9959h385.0248c11.497754 0 20.995899-9.398164 20.995899-20.9959v-0.699863c-0.09998-11.497754-9.498145-20.995899-21.095879-20.995899zM837.336458 832.012498H722.658856c-9.598125 36.592853-42.791642 63.987502-82.283929 63.987502H384.124976c-39.592267 0-72.785784-27.394649-82.283929-63.987502H187.063464c-56.089045 0-102.679945-44.091388-102.679945-100.380395v-48.890451c0-11.797696 9.598125-21.295841 21.295841-21.295841 11.797696 0 21.295841 9.598125 21.29584 21.295841v48.890451c0 32.793595 27.394649 57.788713 59.988284 57.788713h114.677602c9.598125-36.592853 42.791642-63.987502 82.283929-63.987502h256.14997c39.592267 0 72.785784 27.394649 82.283929 63.987502h114.677602c32.593634 0 58.188635-24.895138 58.188635-57.788713v-560.790471H701.762937c-46.290959 0-83.783636-37.492677-83.783636-83.683655v-172.266354H187.063464c-32.593634 0-59.988284 28.494435-59.988283 61.288029v535.895333c0 11.797696-9.598125 21.295841-21.295841 21.295841-11.797696 0-21.295841-9.598125-21.295841-21.295841v-535.895333c0-56.388987 46.5909-103.979691 102.679946-103.979691h484.305409l266.847881 252.650654V731.632103c-0.09998 56.289006-44.891232 100.380394-100.980277 100.380395zM640.274946 767.825034H384.124976c-23.495411 0-42.691662 18.99629-42.691662 42.491701S360.629565 852.808436 384.124976 852.808436h256.14997c23.495411 0 42.691662-18.99629 42.691662-42.491701S663.870338 767.825034 640.274946 767.825034zM659.971099-76.809998v163.967975c0 23.19547 23.595392 40.792033 49.490334 40.792033h172.566296L659.971099-76.809998zM85.283343 597.358328a21.395821 21.295841 0 1 1 42.791642 0 21.395821 21.295841 0 1 1-42.791642 0Z"  horiz-adv-x="1024" />

    
    <glyph glyph-name="tishi" unicode="&#59108;" d="M512 896a512 512 0 1 1 512-512A512 512 0 0 1 512 896z m0-897.365333a102.4 102.4 0 1 0 102.4 102.4 102.4 102.4 0 0 0-102.4-102.4z m0 260.949333c-68.266667 0-123.050667 318.976-123.050667 386.901333a123.050667 123.050667 0 0 0 246.101334 0c0-67.925333-54.784-386.901333-123.050667-386.901333z"  horiz-adv-x="1024" />

    
    <glyph glyph-name="shoucang" unicode="&#59111;" d="M614.4 608c-21.888 0-47.36-12.8-71.68-27.008L512 563.2l-30.72 17.92c-24.32 13.952-49.792 27.008-71.68 27.008A143.36 143.36 0 0 1 300.928 371.2L512 145.024 723.072 371.2A143.36 143.36 0 0 1 614.4 608zM512 896a512 512 0 1 1 512-512A512 512 0 0 1 512 896z m256.768-565.888L512 55.04 255.232 330.112A204.8 204.8 0 0 0 409.6 669.44c37.376 0 72.32-17.92 102.4-35.328 30.08 17.408 65.024 35.328 102.4 35.328a204.8 204.8 0 0 0 154.368-339.328z"  horiz-adv-x="1024" />

    
    </font>
</defs>
</svg>
